<svg xmlns="http://www.w3.org/2000/svg" version="1.1" xmlns:xlink="http://www.w3.org/1999/xlink" xmlns:svgjs="http://svgjs.dev/svgjs" width="1500" height="465" viewBox="0 0 1500 465"><g transform="matrix(1,0,0,1,-0.9090909090909918,-1.0876637525151978)"><svg viewBox="0 0 396 123" data-background-color="#000000" preserveAspectRatio="xMidYMid meet" height="465" width="1500" xmlns="http://www.w3.org/2000/svg" xmlns:xlink="http://www.w3.org/1999/xlink"><g id="tight-bounds" transform="matrix(1,0,0,1,0.2400000000000091,0.2877046055040182)"><svg viewBox="0 0 395.52 122.42459078899194" height="122.42459078899194" width="395.52"><g><svg viewBox="0 0 618.0196028009897 191.2944907273627" height="122.42459078899194" width="395.52"><g transform="matrix(1,0,0,1,222.49960280098963,69.21074857991094)"><svg viewBox="0 0 395.52000000000004 52.872993567540824" height="52.872993567540824" width="395.52000000000004"><g id="textblocktransform"><svg viewBox="0 0 395.52000000000004 52.872993567540824" height="52.872993567540824" width="395.52000000000004" id="textblock"><g><svg viewBox="0 0 395.52000000000004 52.872993567540824" height="52.872993567540824" width="395.52000000000004"><g transform="matrix(1,0,0,1,0,0)"><svg width="395.52000000000004" viewBox="2.54 -38.04 296.03 39.58" height="52.872993567540824" data-palette-color="url(#c2f7c458-c737-416a-aadd-98fce3164e35)"></svg></g></svg></g></svg></g></svg></g><g><svg viewBox="0 0 191.2944907273627 191.2944907273627" height="191.2944907273627" width="191.2944907273627"><g><svg viewBox="0 0 191.2944907273627 191.2944907273627" height="191.2944907273627" width="191.2944907273627"><g transform="matrix(1,0,0,1,50.55870149803292,58.33258837142058)"><svg viewBox="0 0 90.17708773129687 74.62931398452154" height="74.62931398452154" width="90.17708773129687"><g><svg xmlns="http://www.w3.org/2000/svg" xmlns:xlink="http://www.w3.org/1999/xlink" version="1.1" x="0" y="0" viewBox="12 20 58 48" enable-background="new 0 0 80 80" xml:space="preserve" height="74.62931398452154" width="90.17708773129687" class="icon-dxe-0" data-fill-palette-color="accent" id="dxe-0"></svg></g></svg></g><g id="text-0"></g><g id="text-1"></g></svg></g></svg></g></svg></g><defs></defs><mask id="1a732970-96f8-42a2-beaf-ce69445b0b9a"><g id="SvgjsG2160"><svg viewBox="0 0 395.52 122.42459078899194" height="122.42459078899194" width="395.52"><g><svg viewBox="0 0 618.0196028009897 191.2944907273627" height="122.42459078899194" width="395.52"><g transform="matrix(1,0,0,1,222.49960280098963,69.21074857991094)"><svg viewBox="0 0 395.52000000000004 52.872993567540824" height="52.872993567540824" width="395.52000000000004"><g id="SvgjsG2159"><svg viewBox="0 0 395.52000000000004 52.872993567540824" height="52.872993567540824" width="395.52000000000004" id="SvgjsSvg2158"><g><svg viewBox="0 0 395.52000000000004 52.872993567540824" height="52.872993567540824" width="395.52000000000004"><g transform="matrix(1,0,0,1,0,0)"><svg width="395.52000000000004" viewBox="2.54 -38.04 296.03 39.58" height="52.872993567540824" data-palette-color="url(#c2f7c458-c737-416a-aadd-98fce3164e35)"><path d="M2.66-27.25L2.66-27.25 2.64-27.73 2.64-29.25Q2.64-32.4 2.76-36.47L2.76-36.47 2.71-36.52 4.03-36.6Q10.4-36.94 12.3-36.94L12.3-36.94 23.68-36.94Q29.52-36.94 33.37-34.52L33.37-34.52Q34.74-33.35 35.6-31.37 36.45-29.39 36.45-26.9L36.45-26.9Q36.45-22.09 30-18.73L30-18.73Q33.64-17.72 35.58-15.52 37.52-13.31 37.52-10.11L37.52-10.11Q37.52-4.44 32.45-1.51L32.45-1.51Q28.71 0.68 23 0.68L23 0.68 15.72 0.59Q11.01 0.59 3.22 0.81L3.22 0.81Q2.54-0.63 2.54-10.6 2.54-20.56 2.66-27.25ZM16.94-6.81L17.85-6.81Q24.17-6.81 24.17-11.23L24.17-11.23Q24.17-14.04 22.46-14.99L22.46-14.99Q20.92-15.82 17.75-15.92L17.75-15.92 17.04-15.92 16.6-14.55Q16.43-12.04 16.43-9.61 16.43-7.18 16.94-6.81L16.94-6.81ZM23.1-23.14L23.1-23.14Q23.58-24.07 23.58-25.39L23.58-25.39Q23.58-27.95 21.75-28.83 19.92-29.71 17.92-29.71 15.92-29.71 15.92-28.25L15.92-28.25Q15.92-25.63 16.04-22.9L16.04-22.9 16.09-21.61Q16.14-20.68 17.16-20.51L17.16-20.51 18.36-20.65Q22.07-21.09 23.1-23.14ZM53.34-19.8L53.24-18.55Q53.24-18.53 53.22-18.43L53.22-18.43 53.22-18.36Q53.12-17.33 53.12-16.06 53.12-14.79 53.33-13.38 53.54-11.96 54.01-10.55 54.49-9.13 55.49-8.25L55.49-8.25Q56.56-7.32 57.9-7.32 59.23-7.32 60.14-7.7 61.06-8.08 61.68-8.67 62.3-9.25 62.77-10.25L62.77-10.25Q63.94-12.92 63.94-18.51L63.94-18.51Q63.94-24.19 62.63-26.48 61.33-28.76 58.69-28.76L58.69-28.76Q57.37-28.76 56.38-28.13 55.39-27.49 54.89-26.81 54.39-26.12 53.87-23.9 53.34-21.68 53.34-19.8L53.34-19.8ZM39.21-18.36L39.21-18.36 39.26-18.9Q39.55-21.95 40.04-24.3 40.52-26.66 41.62-28.71L41.62-28.71Q44.24-33.23 48.91-35.56 53.59-37.89 58.99-37.89 64.4-37.89 68.82-35.72L68.82-35.72Q71.46-34.42 72.95-32.45L72.95-32.45Q75.8-28.88 76.71-25.88 77.61-22.88 77.61-18.95L77.61-18.95Q77.61-10.21 74-5.62L74-5.62 72.87-4.13Q70.6-1.49 66.45-0.06 62.3 1.37 58.23 1.42L58.23 1.42Q51.24 1.42 46.77-1.51L46.77-1.51Q39.21-6.42 39.21-18.36ZM93.5-19.8L93.4-18.55Q93.4-18.53 93.38-18.43L93.38-18.43 93.38-18.36Q93.28-17.33 93.28-16.06 93.28-14.79 93.49-13.38 93.7-11.96 94.17-10.55 94.65-9.13 95.65-8.25L95.65-8.25Q96.72-7.32 98.05-7.32 99.38-7.32 100.3-7.7 101.22-8.08 101.84-8.67 102.46-9.25 102.92-10.25L102.92-10.25Q104.1-12.92 104.1-18.51L104.1-18.51Q104.1-24.19 102.79-26.48 101.48-28.76 98.85-28.76L98.85-28.76Q97.53-28.76 96.54-28.13 95.55-27.49 95.05-26.81 94.55-26.12 94.03-23.9 93.5-21.68 93.5-19.8L93.5-19.8ZM79.37-18.36L79.37-18.36 79.41-18.9Q79.71-21.95 80.2-24.3 80.68-26.66 81.78-28.71L81.78-28.71Q84.39-33.23 89.07-35.56 93.75-37.89 99.15-37.89 104.56-37.89 108.98-35.72L108.98-35.72Q111.62-34.42 113.11-32.45L113.11-32.45Q115.96-28.88 116.87-25.88 117.77-22.88 117.77-18.95L117.77-18.95Q117.77-10.21 114.16-5.62L114.16-5.62 113.03-4.13Q110.76-1.49 106.61-0.06 102.46 1.37 98.38 1.42L98.38 1.42Q91.4 1.42 86.93-1.51L86.93-1.51Q79.37-6.42 79.37-18.36ZM121.4-21.12L121.48-33.2 121.4-35.3Q121.4-36.65 121.67-36.96L121.67-36.96Q122.33-36.99 124.17-36.99 126.02-36.99 127.36-36.96L127.36-36.96 130.8-36.91Q131.76-36.99 133.56-36.99 135.37-36.99 135.86-36.5L135.86-36.5Q135.73-30.54 135.73-22.34L135.73-22.34 136.59-22.19Q136.96-23.14 137.92-25.05 138.88-26.95 139.03-27.27L139.03-27.27 139.3-27.86Q139.4-28.08 140.19-29.75 140.98-31.42 141.81-33.51 142.64-35.6 143.6-36.79L143.6-36.79Q145.31-36.82 147.76-36.82 150.21-36.82 153.48-36.73 156.76-36.65 158.39-36.65L158.39-36.65Q151.43-24.07 148.5-19.24L148.5-19.24 149.06-18.33Q150.07-17.09 153.43-11.23 156.8-5.37 158.32-2.91L158.32-2.91 158.9-1.95Q159.98-0.17 159.98 0.07 159.98 0.32 159.83 0.51L159.83 0.51 159.68 0.51Q158.32 0.46 157.48 0.46 156.63 0.46 155.27 0.51L155.27 0.51 144.3 0.51Q140.54-6.52 136.49-14.75L136.49-14.75Q136.3-12.79 135.91-5.52L135.91-5.52 135.91-5.2 135.95 0.34Q135.66 0.78 133.39 0.78L133.39 0.78 132.88 0.76 131.56 0.76 124.65 0.81 122.4 0.81Q121.72 0.81 121.43 0.29L121.43 0.29 121.35 0.22 121.35-3.49 121.4-7.32 121.4-21.12ZM161.29 0.07L161.37-2.61Q161.37-7.57 161.64-9.5L161.64-9.5Q161.64-20.12 161.93-30.91L161.93-30.91Q161.86-32.45 161.86-34.01L161.86-34.01 161.86-34.81Q161.76-35.57 161.76-36.16 161.76-36.74 161.88-36.91L161.88-36.91Q167.1-36.6 171.03-36.6 174.97-36.6 176.43-36.74L176.43-36.74Q176.48-36.67 176.5-36.33L176.5-36.33 176.33-36.33 176.33-27.49 176.5-7.62Q176.5-7.4 176.58-7.25L176.58-7.25 176.58-7.2Q176.65-7.06 176.65-6.88L176.65-6.88 176.85 0.22Q176.72 0.49 176.41 0.63L176.41 0.63 175.58 0.63 161.9 0.85Q161.66 0.73 161.27 0.49L161.27 0.49 161.29 0.07ZM219.13-17.09L219.13-17.09 219.1-15.45 219.1-6.42 219.15-2.12 219.15-0.9 219.18 0.24Q219.03 0.44 217.98 0.44L217.98 0.44 217.35 0.44 209.68 0.54Q204.8 0.54 202.4 0.51L202.4 0.51Q202.04 0.12 199.74-6.59L199.74-6.59 195.08-18.97 194.2-18.85 194.18-16.36 194.18-9.74 194.27-3.13 194.27-0.39Q194.27 0.71 193.79 0.76L193.79 0.76Q191.37 0.68 189.17 0.68L189.17 0.68 188.42 0.68 184.73 0.78 184.24 0.78 182.48 0.83 182.41 0.78Q181.6 0.02 181.6-0.32L181.6-0.32 181.6-0.76 181.63-1.25 181.75-10.77Q181.75-26.44 182.04-34.47L182.04-34.47 182.09-36.5Q182.09-36.72 198.91-36.89L198.91-36.89Q199.06-36.79 199.35-35.82L199.35-35.82 199.35-35.89 199.5-35.4Q201.31-30.22 203.89-23.52 206.48-16.82 206.53-16.67L206.53-16.67 207.36-16.72 207.46-36.62Q207.46-36.82 211.02-36.82L211.02-36.82 217.15-36.69 218.96-36.69Q219.13-28.61 219.13-17.09ZM260.95-1.76L260.95-1.42Q260.95-1.39 260.97-1.32L260.97-1.32 260.9-1.12 260.92-1.12 260.92-1.07Q260.92-1.03 260.9-1L260.9-1Q259.75-0.12 255.3 0.61 250.84 1.34 249.17 1.34 247.49 1.34 247.3 1.32L247.3 1.32 246.05 1.39Q244.1 1.51 243.81 1.51L243.81 1.51Q233.55 1.51 228.2-3.64 222.84-8.79 222.84-18.27 222.84-27.76 228.61-32.67 234.38-37.57 244.25-37.57L244.25-37.57Q246.05-37.57 248.7-37.23 251.35-36.89 253.35-36.23L253.35-36.23Q255.8-35.23 257.54-33.34 259.29-31.45 259.82-29.15L259.82-29.15Q259.92-28.52 260.06-27.16 260.19-25.81 260.29-25.17L260.29-25.17Q260.14-24.8 259.24-24.8L259.24-24.8 246.84-25.02Q246.74-25.07 246.59-25.68L246.59-25.68 246.59-25.61Q246.15-27.59 244.86-28.03L244.86-28.03Q244.27-28.25 243.32-28.25 242.37-28.25 241.53-27.93 240.68-27.61 240.12-27.05 239.56-26.49 239.12-25.74 238.68-25 238.46-24.15 238.24-23.29 238.07-22.39 237.9-21.48 237.86-20.61 237.83-19.73 237.79-18.92 237.75-18.12 237.78-17.59 237.8-17.07 237.8-16.89L237.8-16.89 237.8-15.21Q237.8-13.62 237.95-13 238.1-12.38 238.29-11.63 238.49-10.89 238.75-10.5L238.75-10.5Q239.71-9.16 240.82-8.63 241.93-8.11 244.28-8.11 246.64-8.11 248.76-8.81L248.76-8.81 248.89-12.67 247.13-12.82 246.88-12.7 244.35-12.7 244.05-12.67 243.44-13.31Q243.39-13.72 243.39-14.62L243.39-14.62 243.39-20.09Q243.39-20.51 243.98-20.92L243.98-20.92 245.61-20.92Q247.74-20.92 250.38-20.87L250.38-20.87 250.62-20.87Q253.01-20.83 254.26-20.83L254.26-20.83 255.72-20.83 256.28-20.85Q260.63-20.85 261.24-20.29L261.24-20.29 260.95-1.76ZM264.12-10.08L264.12-10.08 277.03-10.3Q277.52-10.3 277.85-9.47 278.18-8.64 278.5-8.15L278.5-8.15Q279.25-6.98 281-6.98 282.75-6.98 283.82-7.8 284.89-8.62 284.89-9.91 284.89-11.21 284.24-11.68 283.58-12.16 282.8-12.61 282.01-13.06 280.49-13.31 278.96-13.55 278.82-13.6L278.82-13.6 278.86-13.6 277.47-13.96Q276.13-14.21 275.23-14.5L275.23-14.5Q269.39-16.06 266.79-18.43 264.19-20.8 264.19-24.8L264.19-24.8Q264.19-27.71 265.27-30.03 266.34-32.35 268.07-33.81L268.07-33.81Q273.08-38.04 281.89-38.04L281.89-38.04Q288.9-38.04 292.9-35.5L292.9-35.5 292.88-35.5Q295.44-33.64 296.39-31.85 297.35-30.05 297.59-27.42L297.59-27.42 296.96-26.78Q290.53-26.54 285.58-26.54L285.58-26.54Q284.09-26.54 283.8-27.42L283.8-27.42Q283.67-27.78 283.53-28.15L283.53-28.15Q283.19-29.03 281.33-29.03L281.33-29.03 281.23-29.03Q279.79-29.03 278.77-28.36 277.74-27.69 277.73-27.05 277.72-26.42 278-26 278.28-25.59 278.6-25.34 278.91-25.1 279.57-24.84 280.23-24.58 280.56-24.5 280.89-24.41 281.6-24.22L281.6-24.22 282.45-24Q282.97-23.85 285.44-23.27 287.92-22.68 289.58-22.14L289.58-22.14 289.58-22.17Q294.78-20.41 296.67-17.79 298.57-15.16 298.57-11.67L298.57-11.67Q298.57-2.37 287.46 0.39L287.46 0.39Q284.24 1.2 280.57 1.54L280.57 1.54Q276.08 1.54 271.69 0.22 267.29-1.1 265.8-4.08L265.8-4.08Q264.8-5.52 264.46-6.73 264.12-7.93 263.9-10.11L263.9-10.11Q263.97-10.08 264.12-10.08Z" opacity="1" transform="matrix(1,0,0,1,0,0)" fill="white" class="wordmark-text-0" id="SvgjsPath2157"></path></svg></g></svg></g></svg></g></svg></g><g><svg viewBox="0 0 191.2944907273627 191.2944907273627" height="191.2944907273627" width="191.2944907273627"><g><svg viewBox="0 0 191.2944907273627 191.2944907273627" height="191.2944907273627" width="191.2944907273627"><g transform="matrix(1,0,0,1,50.55870149803292,58.33258837142058)"><svg viewBox="0 0 90.17708773129687 74.62931398452154" height="74.62931398452154" width="90.17708773129687"><g><svg xmlns="http://www.w3.org/2000/svg" xmlns:xlink="http://www.w3.org/1999/xlink" version="1.1" x="0" y="0" viewBox="12 20 58 48" enable-background="new 0 0 80 80" xml:space="preserve" height="74.62931398452154" width="90.17708773129687" class="icon-dxe-0" data-fill-palette-color="accent" id="SvgjsSvg2156"><g fill="black"><g fill="black"><path fill="black" d="M68 68H14V24H68zM16 66H66V26H16z"></path></g><g fill="black"><path fill="black" d="M47 68H35V52H47zM37 66H45V54H37z"></path></g><g fill="black"><rect x="15" y="62" fill="black" width="21" height="2"></rect></g><g fill="black"><rect x="46" y="62" fill="black" width="21" height="2"></rect></g><g fill="black"><rect x="42" y="59" fill="black" width="2" height="2"></rect></g><g fill="black"><path fill="black" d="M70 26H12V20H70zM14 24H68V22H14z"></path></g><g fill="black"><path fill="black" d="M30.8 45.1L26.8 43 22.8 45.1 23.6 40.7 20.4 37.6 24.8 37 26.8 33 28.8 37 33.2 37.6 30 40.7zM26.8 40.8L28.1 41.5 27.9 40 29 39 27.5 38.8 26.8 37.5 26.1 38.8 24.7 39 25.8 40 25.5 41.5z"></path></g><g fill="black"><path fill="black" d="M45 45.1L41 43 37 45.1 37.8 40.7 34.6 37.6 39 37 41 33 43 37 47.4 37.6 44.2 40.7zM41 40.8L42.3 41.5 42.1 40 43.2 39 41.7 38.8 41 37.4 40.3 38.7 38.9 39 40 40 39.7 41.5z"></path></g><g fill="black"><path fill="black" d="M59.8 45.1L55.8 43 51.8 45.1 52.6 40.7 49.4 37.6 53.8 37 55.8 33 57.8 37 62.2 37.6 59 40.7zM55.8 40.8L57.1 41.5 56.9 40 58 39 56.5 38.8 55.8 37.5 55.1 38.8 53.7 39 54.8 40 54.5 41.5z"></path></g></g></svg></g></svg></g><g id="SvgjsG2155"><path d="M6.253 71.433v0l-0.192-0.057-0.574-0.202c-0.804-0.284-1.718-0.624-2.743-1.021v0l-0.025 0.012 0.148-0.509c0.484-1.651 0.811-2.718 0.981-3.201v0l1.532-4.341c0.523-1.482 1.265-2.603 2.225-3.366v0c0.425-0.245 0.927-0.386 1.505-0.422 0.58-0.043 1.187 0.048 1.821 0.272v0c1.218 0.43 1.968 1.616 2.249 3.557v0c0.577-0.834 1.235-1.4 1.975-1.696 0.732-0.293 1.505-0.295 2.322-0.007v0c1.438 0.507 2.303 1.536 2.596 3.087v0c0.224 1.145 0.079 2.446-0.435 3.903v0l-1.014 2.755c-0.423 1.199-0.956 2.8-1.6 4.804v0c-0.43 0.039-1.91-0.388-4.441-1.281-2.53-0.893-4.64-1.655-6.33-2.287zM15.961 68.739l0.123-0.349c0.567-1.607 0.289-2.609-0.835-3.005v0c-0.709-0.25-1.263-0.202-1.66 0.144v0c-0.353 0.32-0.684 0.878-0.993 1.673v0l-0.096 0.273 0.467 0.355c0.625 0.27 1.245 0.513 1.861 0.731 0.615 0.217 0.993 0.276 1.133 0.178zM10.564 64.197v0c-0.194-0.21-0.458-0.373-0.79-0.49v0c-0.653-0.23-1.174-0.153-1.564 0.231-0.384 0.387-0.665 0.835-0.845 1.343-0.179 0.509-0.084 0.828 0.286 0.959v0c0.665 0.235 1.352 0.459 2.06 0.674v0l0.493 0.164c0.243 0.072 0.433-0.017 0.57-0.265v0l0.103-0.472c0.222-0.988 0.117-1.702-0.313-2.144z" fill="black"></path><path d="M26.123 40.048l0.364 0.359c0.005 0.004 0.016 0.018 0.031 0.04v0l0.023 0.019c0.191 0.197 0.417 0.404 0.676 0.624 0.264 0.224 0.561 0.435 0.889 0.634 0.329 0.209 0.68 0.387 1.051 0.536 0.371 0.148 0.737 0.196 1.096 0.142v0c0.373-0.06 0.675-0.227 0.908-0.501 0.232-0.275 0.39-0.538 0.472-0.791 0.083-0.253 0.119-0.497 0.109-0.732-0.015-0.23-0.083-0.48-0.204-0.748v0c-0.347-0.703-1.095-1.54-2.245-2.512v0c-1.174-0.993-2.109-1.552-2.804-1.678-0.701-0.13-1.279 0.074-1.735 0.613v0c-0.232 0.275-0.368 0.569-0.407 0.884-0.04 0.315-0.031 0.584 0.025 0.806 0.051 0.218 0.258 0.576 0.621 1.075 0.367 0.494 0.744 0.904 1.13 1.23zM22.886 44.79v0l-0.155-0.157c-0.583-0.589-1.073-1.138-1.47-1.648-0.402-0.514-0.72-1.062-0.953-1.642v0c-0.47-1.321-0.538-2.669-0.204-4.043 0.334-1.365 0.972-2.604 1.914-3.718 0.941-1.113 2.02-1.936 3.237-2.467v0c0.724-0.32 1.419-0.461 2.083-0.423v0c1.231 0.029 2.233 0.214 3.008 0.556 0.779 0.336 1.573 0.846 2.382 1.529v0c1.8 1.521 2.857 3.056 3.17 4.603v0l0.168 0.73c0.149 0.928 0.009 1.943-0.418 3.046-0.432 1.099-0.998 2.072-1.697 2.92v0c-1.216 1.439-2.513 2.365-3.892 2.778v0c-2.327 0.7-4.718 0.013-7.173-2.064z" fill="black"></path><path d="M50.761 19.037l0.212 0.465c0.003 0.006 0.008 0.022 0.015 0.049v0l0.015 0.026c0.109 0.252 0.246 0.526 0.41 0.823 0.168 0.303 0.37 0.606 0.606 0.909 0.234 0.312 0.498 0.603 0.792 0.874 0.294 0.271 0.619 0.445 0.974 0.522v0c0.37 0.077 0.712 0.028 1.026-0.146 0.315-0.174 0.555-0.365 0.723-0.571 0.167-0.207 0.288-0.422 0.361-0.646 0.068-0.22 0.093-0.478 0.075-0.772v0c-0.075-0.781-0.476-1.829-1.205-3.145v0c-0.745-1.345-1.42-2.2-2.025-2.565-0.609-0.371-1.222-0.385-1.839-0.044v0c-0.315 0.174-0.546 0.401-0.696 0.682-0.149 0.28-0.237 0.534-0.263 0.762-0.029 0.222 0.037 0.63 0.199 1.225 0.168 0.592 0.374 1.109 0.62 1.552zM46.049 22.32v0l-0.089-0.202c-0.336-0.758-0.599-1.445-0.788-2.064-0.193-0.624-0.295-1.248-0.307-1.873v0c0.03-1.402 0.446-2.686 1.246-3.852 0.798-1.157 1.834-2.089 3.11-2.794 1.275-0.706 2.576-1.092 3.902-1.157v0c0.791-0.042 1.49 0.073 2.098 0.345v0c1.14 0.465 2.012 0.994 2.614 1.589 0.609 0.591 1.17 1.35 1.683 2.276v0c1.142 2.062 1.584 3.871 1.328 5.428v0l-0.103 0.742c-0.191 0.92-0.682 1.82-1.473 2.699-0.795 0.874-1.669 1.582-2.624 2.127v0c-1.648 0.913-3.19 1.317-4.625 1.213v0c-2.424-0.172-4.415-1.665-5.972-4.477z" fill="black"></path><path d="M76.28 8.33l-0.66-4.839-0.151-0.846c-0.051-0.356-0.046-0.582 0.014-0.677v0c0.17-0.031 0.503-0.082 0.997-0.153 0.494-0.071 0.92-0.128 1.277-0.172v0l1.377-0.176c0.254-0.056 0.622-0.119 1.103-0.188 0.481-0.069 0.797-0.046 0.947 0.067v0c0.194 1.593 0.447 3.484 0.759 5.671v0l0.354 0.01c0.057-0.264 0.18-0.668 0.372-1.213 0.185-0.544 0.287-0.861 0.308-0.952v0l0.075-0.252c0.018-0.063 0.1-0.334 0.247-0.812 0.154-0.473 0.3-1.005 0.438-1.596 0.145-0.586 0.32-1.058 0.524-1.416v0c0.46-0.072 1.017-0.155 1.67-0.249 0.652-0.093 1.419-0.189 2.299-0.287 0.873-0.104 1.527-0.188 1.962-0.25v0c-1.373 3.619-2.36 6.13-2.96 7.534v0l0.279 0.333c0.311 0.292 1.029 1.154 2.155 2.588 1.12 1.441 1.928 2.459 2.423 3.053v0l0.292 0.352c0.358 0.433 0.541 0.683 0.551 0.749 0.009 0.066-0.002 0.128-0.034 0.186v0l-0.06 0.008c-0.371 0.039-0.668 0.075-0.892 0.108-0.224 0.032-0.516 0.08-0.877 0.145v0l-4.389 0.626c-1.27-1.735-2.602-3.623-3.996-5.663v0c0.022 0.528 0.118 1.772 0.29 3.731v0l0.017 0.118 0.337 2.222c-0.062 0.13-0.396 0.238-1.002 0.324v0l-0.209 0.02-0.524 0.075-2.766 0.415-0.899 0.128c-0.178 0.025-0.316-0.025-0.415-0.153v0l-0.034-0.025-0.212-1.483-0.2-1.545z" fill="black"></path><path d="M107.245 15.554l0.212-1.068c0.223-1.313 0.415-2.222 0.575-2.728v0c0.48-2.822 1.003-5.661 1.569-8.516v0c0.049-0.41 0.109-0.822 0.18-1.235v0l0.055-0.325c0.007-0.201 0.024-0.381 0.051-0.538 0.027-0.158 0.06-0.256 0.101-0.297v0c1.37 0.321 2.577 0.57 3.621 0.747 1.044 0.177 1.766 0.28 2.166 0.307v0c0.01 0.022 0.01 0.079 0.001 0.173v0l-0.069-0.012-0.599 3.524-1.278 7.937c-0.009 0.053-0.007 0.1 0.006 0.143v0l-0.003 0.02c0.013 0.043 0.016 0.087 0.008 0.133v0l-0.404 2.848c-0.045 0.067-0.114 0.112-0.205 0.138v0l-0.335-0.057-5.459-0.837c-0.06-0.044-0.137-0.108-0.231-0.191v0z" fill="black"></path><path d="M144.943 22.598v0l-0.321 0.576-1.727 3.221-0.803 1.54-0.232 0.432-0.213 0.418c-0.054 0.031-0.208-0.021-0.46-0.156v0l-0.229-0.123-2.747-1.428c-1.162-0.623-2.025-1.09-2.591-1.401v0c-0.038-0.141 0.101-1.154 0.417-3.039v0l0.701-5.301-0.34-0.126-0.485 0.884-1.265 2.359-1.225 2.368-0.524 0.977c-0.142 0.264-0.274 0.37-0.398 0.319v0c-0.566-0.326-1.109-0.629-1.631-0.908v0l-0.264-0.142-1.33-0.668-0.176-0.094-0.635-0.318-0.017-0.032c-0.096-0.286-0.122-0.47-0.078-0.551v0l0.085-0.159 0.099-0.162 1.865-3.374c1.998-3.726 3.543-6.523 4.636-8.391v0l0.405-0.713c0.028-0.053 2.051 0.972 6.069 3.073v0c0.023 0.042 0.006 0.2-0.05 0.472v0l0.014-0.026-0.041 0.204c-0.229 1.456-0.462 3.144-0.699 5.065-0.246 1.923-0.372 2.905-0.379 2.946v0l0.309 0.143 3.839-7.074c0.025-0.047 0.46 0.156 1.305 0.609v0l2.159 1.214 0.651 0.35c-0.994 1.937-2.225 4.276-3.694 7.016z" fill="black"></path><path d="M163.668 49.549l-0.107 0.091c-0.005 0.004-0.013 0.015-0.024 0.033v0l-0.08 0.029 0.007 0.008-0.016 0.013c-0.005 0.004-0.012 0.006-0.021 0.005v0c-0.385-0.083-1.042-0.517-1.97-1.301-0.927-0.793-1.535-1.36-1.824-1.7-0.293-0.345-0.454-0.54-0.484-0.585v0l-0.346-0.361c-0.37-0.384-0.579-0.604-0.626-0.66v0c-1.793-2.111-2.629-4.165-2.51-6.163 0.125-2.002 1.162-3.83 3.111-5.485 1.948-1.655 3.932-2.318 5.949-1.988 2.013 0.334 3.88 1.513 5.6 3.537v0c0.319 0.375 0.676 0.863 1.071 1.462 0.39 0.603 0.691 1.169 0.903 1.696v0c0.224 0.675 0.293 1.358 0.209 2.05-0.089 0.687-0.322 1.287-0.699 1.799v0c-0.11 0.128-0.291 0.326-0.544 0.594-0.258 0.262-0.444 0.46-0.559 0.592v0c-0.102 0.034-0.233-0.043-0.392-0.23v0l-3.177-3.879c-0.007-0.029 0.04-0.112 0.141-0.251v0l-0.023 0.019c0.333-0.431 0.43-0.82 0.294-1.166v0c-0.058-0.161-0.169-0.337-0.333-0.53-0.168-0.198-0.358-0.355-0.571-0.471-0.212-0.116-0.427-0.183-0.642-0.201-0.206-0.017-0.427-0.004-0.662 0.038-0.23 0.038-0.45 0.107-0.662 0.208-0.216 0.105-0.431 0.218-0.644 0.337-0.218 0.124-0.42 0.261-0.607 0.411-0.186 0.141-0.365 0.28-0.537 0.417-0.171 0.128-0.31 0.242-0.417 0.342-0.102 0.096-0.171 0.158-0.207 0.188v0l-0.517 0.44c-0.325 0.276-0.54 0.485-0.647 0.627-0.101 0.138-0.21 0.292-0.328 0.462-0.118 0.17-0.193 0.317-0.227 0.442v0c-0.106 0.431-0.118 0.807-0.035 1.131 0.083 0.314 0.332 0.714 0.745 1.201 0.409 0.482 0.873 0.879 1.391 1.19v0l1.22-0.97-0.414-0.579-0.103-0.044-0.665-0.784-0.079-0.077 0.036-0.358c0.078-0.083 0.208-0.203 0.391-0.358v0l1.689-1.436c0.081-0.069 0.217-0.079 0.406-0.03v0l0.427 0.502c0.371 0.436 0.781 0.93 1.233 1.482v0l0.058 0.068c0.408 0.501 0.722 0.881 0.941 1.14v0l0.382 0.449 0.156 0.168c0.759 0.893 1.134 1.448 1.126 1.665v0z" fill="black"></path><path d="M174.156 61.559v0l1.854 4.883c0.045 0.125-0.021 0.266-0.198 0.422-0.181 0.164-0.32 0.31-0.416 0.436v0c-0.227 0.294-0.26 0.663-0.1 1.108 0.16 0.445 0.392 0.764 0.696 0.96 0.306 0.201 0.622 0.243 0.947 0.125 0.332-0.12 0.527-0.285 0.585-0.497 0.058-0.212 0.112-0.436 0.161-0.673 0.041-0.241 0.022-0.567-0.055-0.978-0.077-0.411-0.116-0.637-0.117-0.68v0l0.006 0.019-0.058-0.573c-0.059-0.361-0.093-0.671-0.101-0.93v0c-0.132-1.623-0.018-2.87 0.34-3.742 0.362-0.88 1.051-1.503 2.065-1.869v0c0.739-0.266 1.453-0.368 2.141-0.304 0.686 0.057 1.292 0.239 1.82 0.544v0c1.529 0.886 2.696 2.447 3.501 4.683v0c0.641 1.779 0.821 3.292 0.542 4.539v0l-0.004-0.01c-0.235 0.821-0.535 1.431-0.9 1.832-0.369 0.409-0.878 0.765-1.525 1.069v0l-0.333-0.156c-0.643-1.608-1.191-3.042-1.644-4.301v0c-0.135-0.376-0.107-0.641 0.085-0.795v0c0.083-0.065 0.164-0.133 0.245-0.204v0c0.188-0.167 0.197-0.485 0.027-0.955v0l-0.013-0.038c-0.131-0.363-0.328-0.646-0.592-0.848-0.262-0.196-0.475-0.268-0.64-0.215-0.157 0.056-0.276 0.138-0.358 0.245-0.079 0.114-0.136 0.222-0.169 0.327-0.036 0.098-0.054 0.242-0.056 0.434-0.002 0.192 0 0.333 0.004 0.423 0.011 0.088 0.023 0.232 0.039 0.432v0l0.034 0.359c0.008 0.139 0.05 0.552 0.127 1.238 0.075 0.68 0.123 1.254 0.143 1.722v0l0.009-0.004c0.025 1.484-0.208 2.587-0.698 3.308-0.492 0.715-1.18 1.232-2.063 1.55v0c-2.361 0.85-4.4-0.007-6.117-2.573v0c-0.494-0.742-0.951-1.561-1.373-2.456v0c-0.411-1.14-0.651-2.327-0.72-3.562-0.07-1.234 0.207-2.176 0.829-2.824v0c0.271-0.388 0.544-0.681 0.819-0.879 0.275-0.198 0.678-0.425 1.21-0.68v0c0.001 0.021 0.008 0.05 0.021 0.088z" fill="black"></path><path d="M15.886 119.07v0l0.185-0.076 0.583-0.206c0.803-0.284 1.732-0.594 2.785-0.932v0l0.012-0.025 0.208 0.498c0.665 1.601 1.083 2.643 1.253 3.126v0l1.545 4.369c0.528 1.494 0.659 2.842 0.392 4.045v0c-0.177 0.458-0.482 0.884-0.915 1.277-0.424 0.397-0.957 0.709-1.597 0.935v0c-1.23 0.435-2.566-0.018-4.007-1.358v0c0.071 1.02-0.088 1.878-0.478 2.573-0.39 0.696-0.992 1.188-1.809 1.476v0c-1.45 0.513-2.778 0.251-3.984-0.784v0c-0.902-0.754-1.612-1.863-2.129-3.325v0l-0.947-2.801c-0.426-1.205-1.02-2.796-1.782-4.771v0c0.308-0.307 1.736-0.91 4.285-1.812 2.548-0.901 4.682-1.637 6.4-2.209zM9.989 127.319l0.123 0.348c0.572 1.619 1.424 2.229 2.554 1.83v0c0.716-0.253 1.118-0.642 1.207-1.168v0c0.076-0.465-0.018-1.109-0.281-1.934v0l-0.096-0.274-0.588 0.017c-0.66 0.191-1.3 0.396-1.921 0.616-0.621 0.22-0.954 0.408-0.998 0.565zM17.086 127.469v0c0.283 0.041 0.594 0.002 0.932-0.118v0c0.653-0.231 1.009-0.621 1.069-1.172 0.062-0.544 0.002-1.074-0.18-1.589-0.18-0.508-0.458-0.696-0.835-0.563v0c-0.665 0.235-1.344 0.493-2.036 0.773v0l-0.492 0.195c-0.228 0.095-0.318 0.278-0.271 0.551v0l0.219 0.442c0.448 0.908 0.979 1.401 1.594 1.481z" fill="black"></path><path d="M29.339 151.176l-0.414 0.298c-0.005 0.004-0.02 0.013-0.045 0.025v0l-0.023 0.019c-0.231 0.16-0.476 0.35-0.735 0.57-0.264 0.224-0.527 0.48-0.787 0.77-0.256 0.295-0.488 0.614-0.696 0.955-0.209 0.351-0.319 0.706-0.329 1.064v0c-0.004 0.387 0.11 0.718 0.342 0.992 0.237 0.28 0.475 0.479 0.716 0.598 0.235 0.124 0.47 0.2 0.703 0.229 0.229 0.024 0.489-0.004 0.78-0.084v0c0.755-0.22 1.712-0.821 2.871-1.801v0c1.179-0.998 1.889-1.834 2.129-2.508 0.245-0.669 0.137-1.276-0.323-1.82v0c-0.232-0.274-0.5-0.457-0.805-0.549-0.308-0.097-0.577-0.135-0.805-0.116-0.228 0.019-0.618 0.166-1.17 0.441-0.553 0.285-1.022 0.59-1.409 0.917zM25.174 147.165v0l0.181-0.126c0.682-0.472 1.31-0.864 1.883-1.175 0.574-0.311 1.169-0.536 1.785-0.674v0c1.395-0.247 2.743-0.093 4.043 0.465 1.304 0.562 2.429 1.402 3.375 2.52 0.946 1.118 1.582 2.328 1.908 3.631v0c0.196 0.767 0.219 1.48 0.07 2.139v0c-0.238 1.213-0.588 2.176-1.049 2.888-0.466 0.717-1.106 1.419-1.918 2.108v0c-1.809 1.531-3.507 2.322-5.094 2.374v0l-0.755 0.05c-0.944-0.013-1.929-0.321-2.956-0.926-1.022-0.609-1.894-1.332-2.618-2.167v0c-1.226-1.448-1.925-2.893-2.098-4.334v0c-0.308-2.425 0.773-4.683 3.243-6.773z" fill="black"></path><path d="M52.808 171.216l-0.281 0.426c-0.003 0.006-0.014 0.019-0.033 0.039v0l-0.015 0.026c-0.159 0.232-0.32 0.496-0.484 0.793-0.168 0.303-0.322 0.636-0.462 1-0.134 0.367-0.238 0.747-0.311 1.14-0.07 0.402-0.047 0.773 0.07 1.112v0c0.134 0.363 0.358 0.632 0.672 0.806 0.32 0.177 0.614 0.279 0.881 0.304 0.264 0.032 0.51 0.02 0.74-0.036 0.223-0.059 0.456-0.178 0.698-0.355v0c0.628-0.474 1.309-1.376 2.044-2.704v0c0.748-1.351 1.114-2.385 1.099-3.101-0.009-0.713-0.325-1.241-0.948-1.586v0c-0.315-0.174-0.63-0.25-0.947-0.227-0.323 0.019-0.587 0.078-0.795 0.177-0.207 0.099-0.519 0.375-0.937 0.828-0.416 0.462-0.746 0.915-0.991 1.358zM47.49 168.947v0l0.124-0.183c0.47-0.684 0.917-1.273 1.343-1.767 0.426-0.495 0.902-0.916 1.429-1.264v0c1.216-0.727 2.531-1.061 3.944-1.002 1.419 0.062 2.769 0.448 4.051 1.157 1.282 0.709 2.306 1.614 3.073 2.716v0c0.456 0.648 0.731 1.306 0.825 1.974v0c0.208 1.218 0.224 2.243 0.047 3.073-0.181 0.836-0.529 1.72-1.045 2.651v0c-1.147 2.074-2.453 3.417-3.918 4.03v0l-0.688 0.315c-0.887 0.324-1.917 0.385-3.092 0.184-1.171-0.207-2.244-0.572-3.217-1.095v0c-1.66-0.918-2.827-2.02-3.501-3.306v0c-1.15-2.158-0.941-4.652 0.625-7.483z" fill="black"></path><path d="M76.998 180.37l0.722-4.859 0.091-0.855c0.051-0.356 0.118-0.572 0.203-0.647v0c0.179 0.019 0.515 0.063 1.01 0.134 0.494 0.07 0.922 0.135 1.284 0.193v0l1.381 0.217c0.26 0.017 0.634 0.06 1.121 0.129 0.481 0.069 0.778 0.178 0.892 0.329v0c-0.26 1.59-0.547 3.489-0.862 5.697v0l0.338 0.109c0.135-0.243 0.368-0.603 0.698-1.081 0.336-0.47 0.53-0.745 0.582-0.825v0l0.142-0.222c0.035-0.056 0.19-0.292 0.464-0.71 0.275-0.418 0.564-0.891 0.868-1.42 0.304-0.528 0.607-0.936 0.911-1.222v0c0.456 0.058 1.013 0.134 1.672 0.228 0.659 0.094 1.429 0.214 2.309 0.359 0.873 0.151 1.53 0.258 1.972 0.321v0c-2.352 3.108-4.013 5.255-4.983 6.442v0l0.176 0.398c0.216 0.374 0.667 1.41 1.353 3.108 0.679 1.704 1.175 2.918 1.488 3.641v0l0.174 0.409c0.221 0.522 0.328 0.817 0.318 0.882-0.009 0.066-0.038 0.122-0.084 0.17v0l-0.06-0.009c-0.361-0.065-0.656-0.114-0.886-0.146-0.224-0.032-0.522-0.068-0.893-0.107v0l-4.409-0.628c-0.746-2.036-1.505-4.236-2.278-6.598v0c-0.128 0.52-0.383 1.748-0.767 3.683v0l-0.018 0.129-0.299 2.237c-0.096 0.107-0.447 0.118-1.053 0.031v0l-0.206-0.039-0.534-0.076-2.781-0.376-0.91-0.13c-0.185-0.026-0.307-0.114-0.365-0.263v0l-0.026-0.034 0.213-1.493 0.239-1.54z" fill="black"></path><path d="M109.216 190.131l-0.153-1.078c-0.225-1.326-0.346-2.254-0.361-2.785v0c-0.483-2.842-0.929-5.71-1.34-8.605v0c-0.09-0.41-0.171-0.825-0.242-1.245v0l-0.056-0.325c-0.06-0.192-0.103-0.367-0.129-0.525-0.027-0.158-0.028-0.262-0.003-0.314v0c1.412-0.152 2.644-0.317 3.694-0.496 1.057-0.179 1.775-0.322 2.156-0.427v0c0.016 0.017 0.036 0.072 0.058 0.163v0l-0.069 0.012 0.602 3.544 1.423 7.962c0.01 0.059 0.028 0.107 0.055 0.143v0l0.003 0.02c0.025 0.029 0.042 0.067 0.05 0.113v0l0.564 2.841c-0.021 0.078-0.07 0.144-0.149 0.198v0l-0.335 0.057-5.468 1.02c-0.071-0.022-0.165-0.056-0.281-0.104v0z" fill="black"></path><path d="M144.029 169.554v0l0.303 0.586 1.735 3.239 0.843 1.531 0.235 0.44 0.231 0.409c-0.01 0.066-0.141 0.166-0.394 0.302v0l-0.229 0.122-2.727 1.507c-1.168 0.626-2.041 1.089-2.619 1.391v0c-0.138-0.047-0.911-0.728-2.318-2.043v0l-4.049-3.541-0.294 0.214 0.468 0.894 1.273 2.377 1.308 2.357 0.524 0.977c0.141 0.264 0.157 0.433 0.045 0.508v0c-0.59 0.294-1.147 0.58-1.669 0.861v0l-0.273 0.146-1.301 0.742-0.176 0.095-0.624 0.357-0.036-0.004c-0.285-0.081-0.45-0.163-0.494-0.245v0l-0.085-0.158-0.086-0.181-1.785-3.439c-2.006-3.744-3.492-6.596-4.458-8.555v0l-0.369-0.731c-0.028-0.053 1.959-1.178 5.963-3.376v0c0.048 0.005 0.17 0.105 0.366 0.302v0l-0.015-0.026 0.143 0.139c1.092 1.009 2.378 2.148 3.858 3.416 1.478 1.278 2.232 1.931 2.262 1.96v0l0.29-0.178-3.789-7.157c-0.025-0.047 0.388-0.298 1.238-0.754v0l2.225-1.135 0.651-0.349c1.075 1.909 2.352 4.242 3.829 7z" fill="black"></path><path d="M171.643 151.118l0.106 0.09c0.005 0.004 0.017 0.01 0.037 0.018v0l0.041 0.075 0.007-0.008 0.015 0.013c0.01 0.009 0.016 0.018 0.016 0.027v0c-0.02 0.394-0.346 1.117-0.979 2.169-0.628 1.047-1.089 1.744-1.382 2.089-0.293 0.345-0.46 0.535-0.499 0.572v0l-0.307 0.407c-0.32 0.427-0.505 0.671-0.557 0.732v0c-1.803 2.12-3.706 3.28-5.712 3.48-2.005 0.2-3.989-0.534-5.952-2.203-1.958-1.665-2.937-3.524-2.938-5.578-0.001-2.054 0.865-4.101 2.599-6.14v0c0.319-0.375 0.747-0.807 1.283-1.294 0.537-0.487 1.048-0.878 1.535-1.173v0c0.634-0.335 1.302-0.514 2.004-0.537 0.697-0.028 1.328 0.103 1.895 0.392v0c0.149 0.092 0.374 0.244 0.674 0.455 0.305 0.207 0.532 0.356 0.681 0.448v0c0.05 0.095-0.004 0.237-0.164 0.424v0l-3.335 3.784c-0.027 0.012-0.117-0.021-0.27-0.098v0l0.023 0.019c-0.483-0.254-0.885-0.285-1.205-0.094v0c-0.149 0.083-0.308 0.223-0.476 0.421-0.164 0.193-0.288 0.406-0.373 0.64-0.081 0.229-0.112 0.451-0.095 0.666 0.017 0.216 0.063 0.434 0.138 0.655 0.075 0.221 0.181 0.429 0.32 0.626 0.139 0.197 0.289 0.39 0.45 0.58 0.157 0.195 0.321 0.373 0.49 0.534 0.178 0.16 0.347 0.317 0.506 0.469 0.163 0.147 0.3 0.264 0.41 0.349 0.116 0.09 0.192 0.15 0.227 0.18v0l0.518 0.44c0.33 0.28 0.571 0.459 0.723 0.537 0.158 0.082 0.328 0.169 0.51 0.263 0.187 0.089 0.344 0.14 0.473 0.153v0c0.447 0.039 0.821-0.01 1.122-0.147 0.31-0.138 0.672-0.451 1.086-0.938 0.414-0.487 0.733-1.011 0.956-1.573v0l-1.162-1.053-0.505 0.501-0.026 0.108-0.673 0.792-0.07 0.097-0.36 0.022c-0.095-0.063-0.236-0.175-0.423-0.334v0l-1.697-1.442c-0.086-0.073-0.121-0.207-0.103-0.403v0l0.433-0.509c0.371-0.436 0.794-0.924 1.27-1.463v0l0.065-0.076c0.428-0.483 0.753-0.854 0.972-1.113v0l0.389-0.457 0.141-0.181c0.763-0.898 1.257-1.36 1.481-1.388v0z" fill="black"></path><path d="M177.607 133.678v0l1.698-4.971c0.045-0.125 0.189-0.19 0.432-0.195 0.245-0.011 0.444-0.034 0.598-0.071v0c0.362-0.082 0.625-0.348 0.788-0.798 0.16-0.445 0.187-0.842 0.079-1.192-0.109-0.344-0.33-0.576-0.662-0.696-0.332-0.12-0.588-0.117-0.768 0.01-0.178 0.12-0.362 0.259-0.553 0.416-0.185 0.16-0.379 0.422-0.582 0.788-0.203 0.366-0.317 0.565-0.343 0.598v0l0.007-0.019-0.334 0.485c-0.187 0.322-0.36 0.585-0.519 0.789v0c-0.936 1.339-1.825 2.233-2.665 2.68-0.847 0.445-1.781 0.483-2.802 0.114v0c-0.739-0.267-1.357-0.642-1.855-1.126-0.489-0.488-0.841-1.022-1.056-1.602v0c-0.616-1.666-0.519-3.623 0.292-5.871v0c0.644-1.785 1.477-3.073 2.499-3.865v0l-0.003 0.009c0.705-0.482 1.33-0.762 1.875-0.841 0.545-0.079 1.167-0.028 1.866 0.153v0l0.156 0.332c-0.529 1.663-1.022 3.127-1.479 4.392v0c-0.138 0.382-0.332 0.567-0.582 0.555v0c-0.105-0.003-0.212-0.002-0.319 0.001v0c-0.257 0.006-0.471 0.247-0.643 0.724v0l-0.014 0.037c-0.133 0.369-0.159 0.714-0.076 1.035 0.074 0.324 0.192 0.519 0.352 0.583 0.163 0.059 0.31 0.073 0.441 0.042 0.127-0.039 0.237-0.088 0.329-0.146 0.092-0.059 0.202-0.157 0.33-0.295 0.124-0.146 0.214-0.259 0.27-0.338 0.048-0.075 0.13-0.194 0.246-0.357v0l0.203-0.298c0.085-0.118 0.317-0.466 0.695-1.045 0.379-0.578 0.712-1.052 1.002-1.422v0l-0.01-0.003c0.924-1.167 1.808-1.871 2.652-2.112 0.844-0.24 1.711-0.2 2.6 0.121v0c2.38 0.859 3.409 2.83 3.089 5.914v0c-0.092 0.901-0.262 1.834-0.511 2.798v0c-0.414 1.146-0.992 2.218-1.734 3.218-0.743 0.999-1.562 1.553-2.457 1.661v0c-0.46 0.117-0.859 0.164-1.198 0.141-0.338-0.023-0.797-0.107-1.374-0.252v0c0.013-0.017 0.026-0.044 0.04-0.081z" fill="black"></path><path d="M1.9 96.953c0-3.244 2.63-5.875 5.875-5.875 3.244 0 5.875 2.63 5.874 5.875 0 3.244-2.63 5.875-5.874 5.874-3.244 0-5.875-2.63-5.875-5.874z" fill="black"></path><path d="M177.645 96.953c0-3.244 2.63-5.875 5.875-5.875 3.244 0 5.875 2.63 5.874 5.875 0 3.244-2.63 5.875-5.874 5.874-3.244 0-5.875-2.63-5.875-5.874z" fill="black"></path></g><g id="SvgjsG2154"></g></svg></g></svg></g></svg></g><defs><mask></mask></defs></svg><rect width="395.52" height="122.42459078899194" fill="black" stroke="none" visibility="hidden"></rect></g></mask><linearGradient x1="0.054" x2="0.941" y1="0.5" y2="0.5" id="c2f7c458-c737-416a-aadd-98fce3164e35"><stop stop-color="#9c7945" offset="0"></stop><stop stop-color="#faf3aa" offset="0.498"></stop><stop stop-color="#9c7945" offset="1"></stop></linearGradient><rect width="395.52" height="122.42459078899194" fill="url(#c2f7c458-c737-416a-aadd-98fce3164e35)" mask="url(#1a732970-96f8-42a2-beaf-ce69445b0b9a)" data-fill-palette-color="primary"></rect><mask id="4ccf46eb-c802-49ec-919e-9d92eabbec34"><g id="SvgjsG2187"><svg viewBox="0 0 395.52 122.42459078899194" height="122.42459078899194" width="395.52"><g><svg viewBox="0 0 618.0196028009897 191.2944907273627" height="122.42459078899194" width="395.52"><g transform="matrix(1,0,0,1,222.49960280098963,69.21074857991094)"><svg viewBox="0 0 395.52000000000004 52.872993567540824" height="52.872993567540824" width="395.52000000000004"><g id="SvgjsG2186"><svg viewBox="0 0 395.52000000000004 52.872993567540824" height="52.872993567540824" width="395.52000000000004" id="SvgjsSvg2185"><g><svg viewBox="0 0 395.52000000000004 52.872993567540824" height="52.872993567540824" width="395.52000000000004"><g transform="matrix(1,0,0,1,0,0)"><svg width="395.52000000000004" viewBox="2.54 -38.04 296.03 39.58" height="52.872993567540824" data-palette-color="url(#c2f7c458-c737-416a-aadd-98fce3164e35)"></svg></g></svg></g></svg></g></svg></g><g><svg viewBox="0 0 191.2944907273627 191.2944907273627" height="191.2944907273627" width="191.2944907273627"><g><svg viewBox="0 0 191.2944907273627 191.2944907273627" height="191.2944907273627" width="191.2944907273627"><g transform="matrix(1,0,0,1,50.55870149803292,58.33258837142058)"><svg viewBox="0 0 90.17708773129687 74.62931398452154" height="74.62931398452154" width="90.17708773129687"><g><svg xmlns="http://www.w3.org/2000/svg" xmlns:xlink="http://www.w3.org/1999/xlink" version="1.1" x="0" y="0" viewBox="12 20 58 48" enable-background="new 0 0 80 80" xml:space="preserve" height="74.62931398452154" width="90.17708773129687" class="icon-dxe-0" data-fill-palette-color="accent" id="SvgjsSvg2184"><g fill="white"><g fill="white"><path fill="white" d="M68 68H14V24H68zM16 66H66V26H16z"></path></g><g fill="white"><path fill="white" d="M47 68H35V52H47zM37 66H45V54H37z"></path></g><g fill="white"><rect x="15" y="62" fill="white" width="21" height="2"></rect></g><g fill="white"><rect x="46" y="62" fill="white" width="21" height="2"></rect></g><g fill="white"><rect x="42" y="59" fill="white" width="2" height="2"></rect></g><g fill="white"><path fill="white" d="M70 26H12V20H70zM14 24H68V22H14z"></path></g><g fill="white"><path fill="white" d="M30.8 45.1L26.8 43 22.8 45.1 23.6 40.7 20.4 37.6 24.8 37 26.8 33 28.8 37 33.2 37.6 30 40.7zM26.8 40.8L28.1 41.5 27.9 40 29 39 27.5 38.8 26.8 37.5 26.1 38.8 24.7 39 25.8 40 25.5 41.5z"></path></g><g fill="white"><path fill="white" d="M45 45.1L41 43 37 45.1 37.8 40.7 34.6 37.6 39 37 41 33 43 37 47.4 37.6 44.2 40.7zM41 40.8L42.3 41.5 42.1 40 43.2 39 41.7 38.8 41 37.4 40.3 38.7 38.9 39 40 40 39.7 41.5z"></path></g><g fill="white"><path fill="white" d="M59.8 45.1L55.8 43 51.8 45.1 52.6 40.7 49.4 37.6 53.8 37 55.8 33 57.8 37 62.2 37.6 59 40.7zM55.8 40.8L57.1 41.5 56.9 40 58 39 56.5 38.8 55.8 37.5 55.1 38.8 53.7 39 54.8 40 54.5 41.5z"></path></g></g></svg></g></svg></g><g id="SvgjsG2183"><path d="M6.253 71.433v0l-0.192-0.057-0.574-0.202c-0.804-0.284-1.718-0.624-2.743-1.021v0l-0.025 0.012 0.148-0.509c0.484-1.651 0.811-2.718 0.981-3.201v0l1.532-4.341c0.523-1.482 1.265-2.603 2.225-3.366v0c0.425-0.245 0.927-0.386 1.505-0.422 0.58-0.043 1.187 0.048 1.821 0.272v0c1.218 0.43 1.968 1.616 2.249 3.557v0c0.577-0.834 1.235-1.4 1.975-1.696 0.732-0.293 1.505-0.295 2.322-0.007v0c1.438 0.507 2.303 1.536 2.596 3.087v0c0.224 1.145 0.079 2.446-0.435 3.903v0l-1.014 2.755c-0.423 1.199-0.956 2.8-1.6 4.804v0c-0.43 0.039-1.91-0.388-4.441-1.281-2.53-0.893-4.64-1.655-6.33-2.287zM15.961 68.739l0.123-0.349c0.567-1.607 0.289-2.609-0.835-3.005v0c-0.709-0.25-1.263-0.202-1.66 0.144v0c-0.353 0.32-0.684 0.878-0.993 1.673v0l-0.096 0.273 0.467 0.355c0.625 0.27 1.245 0.513 1.861 0.731 0.615 0.217 0.993 0.276 1.133 0.178zM10.564 64.197v0c-0.194-0.21-0.458-0.373-0.79-0.49v0c-0.653-0.23-1.174-0.153-1.564 0.231-0.384 0.387-0.665 0.835-0.845 1.343-0.179 0.509-0.084 0.828 0.286 0.959v0c0.665 0.235 1.352 0.459 2.06 0.674v0l0.493 0.164c0.243 0.072 0.433-0.017 0.57-0.265v0l0.103-0.472c0.222-0.988 0.117-1.702-0.313-2.144z" fill="white"></path><path d="M26.123 40.048l0.364 0.359c0.005 0.004 0.016 0.018 0.031 0.04v0l0.023 0.019c0.191 0.197 0.417 0.404 0.676 0.624 0.264 0.224 0.561 0.435 0.889 0.634 0.329 0.209 0.68 0.387 1.051 0.536 0.371 0.148 0.737 0.196 1.096 0.142v0c0.373-0.06 0.675-0.227 0.908-0.501 0.232-0.275 0.39-0.538 0.472-0.791 0.083-0.253 0.119-0.497 0.109-0.732-0.015-0.23-0.083-0.48-0.204-0.748v0c-0.347-0.703-1.095-1.54-2.245-2.512v0c-1.174-0.993-2.109-1.552-2.804-1.678-0.701-0.13-1.279 0.074-1.735 0.613v0c-0.232 0.275-0.368 0.569-0.407 0.884-0.04 0.315-0.031 0.584 0.025 0.806 0.051 0.218 0.258 0.576 0.621 1.075 0.367 0.494 0.744 0.904 1.13 1.23zM22.886 44.79v0l-0.155-0.157c-0.583-0.589-1.073-1.138-1.47-1.648-0.402-0.514-0.72-1.062-0.953-1.642v0c-0.47-1.321-0.538-2.669-0.204-4.043 0.334-1.365 0.972-2.604 1.914-3.718 0.941-1.113 2.02-1.936 3.237-2.467v0c0.724-0.32 1.419-0.461 2.083-0.423v0c1.231 0.029 2.233 0.214 3.008 0.556 0.779 0.336 1.573 0.846 2.382 1.529v0c1.8 1.521 2.857 3.056 3.17 4.603v0l0.168 0.73c0.149 0.928 0.009 1.943-0.418 3.046-0.432 1.099-0.998 2.072-1.697 2.92v0c-1.216 1.439-2.513 2.365-3.892 2.778v0c-2.327 0.7-4.718 0.013-7.173-2.064z" fill="white"></path><path d="M50.761 19.037l0.212 0.465c0.003 0.006 0.008 0.022 0.015 0.049v0l0.015 0.026c0.109 0.252 0.246 0.526 0.41 0.823 0.168 0.303 0.37 0.606 0.606 0.909 0.234 0.312 0.498 0.603 0.792 0.874 0.294 0.271 0.619 0.445 0.974 0.522v0c0.37 0.077 0.712 0.028 1.026-0.146 0.315-0.174 0.555-0.365 0.723-0.571 0.167-0.207 0.288-0.422 0.361-0.646 0.068-0.22 0.093-0.478 0.075-0.772v0c-0.075-0.781-0.476-1.829-1.205-3.145v0c-0.745-1.345-1.42-2.2-2.025-2.565-0.609-0.371-1.222-0.385-1.839-0.044v0c-0.315 0.174-0.546 0.401-0.696 0.682-0.149 0.28-0.237 0.534-0.263 0.762-0.029 0.222 0.037 0.63 0.199 1.225 0.168 0.592 0.374 1.109 0.62 1.552zM46.049 22.32v0l-0.089-0.202c-0.336-0.758-0.599-1.445-0.788-2.064-0.193-0.624-0.295-1.248-0.307-1.873v0c0.03-1.402 0.446-2.686 1.246-3.852 0.798-1.157 1.834-2.089 3.11-2.794 1.275-0.706 2.576-1.092 3.902-1.157v0c0.791-0.042 1.49 0.073 2.098 0.345v0c1.14 0.465 2.012 0.994 2.614 1.589 0.609 0.591 1.17 1.35 1.683 2.276v0c1.142 2.062 1.584 3.871 1.328 5.428v0l-0.103 0.742c-0.191 0.92-0.682 1.82-1.473 2.699-0.795 0.874-1.669 1.582-2.624 2.127v0c-1.648 0.913-3.19 1.317-4.625 1.213v0c-2.424-0.172-4.415-1.665-5.972-4.477z" fill="white"></path><path d="M76.28 8.33l-0.66-4.839-0.151-0.846c-0.051-0.356-0.046-0.582 0.014-0.677v0c0.17-0.031 0.503-0.082 0.997-0.153 0.494-0.071 0.92-0.128 1.277-0.172v0l1.377-0.176c0.254-0.056 0.622-0.119 1.103-0.188 0.481-0.069 0.797-0.046 0.947 0.067v0c0.194 1.593 0.447 3.484 0.759 5.671v0l0.354 0.01c0.057-0.264 0.18-0.668 0.372-1.213 0.185-0.544 0.287-0.861 0.308-0.952v0l0.075-0.252c0.018-0.063 0.1-0.334 0.247-0.812 0.154-0.473 0.3-1.005 0.438-1.596 0.145-0.586 0.32-1.058 0.524-1.416v0c0.46-0.072 1.017-0.155 1.67-0.249 0.652-0.093 1.419-0.189 2.299-0.287 0.873-0.104 1.527-0.188 1.962-0.25v0c-1.373 3.619-2.36 6.13-2.96 7.534v0l0.279 0.333c0.311 0.292 1.029 1.154 2.155 2.588 1.12 1.441 1.928 2.459 2.423 3.053v0l0.292 0.352c0.358 0.433 0.541 0.683 0.551 0.749 0.009 0.066-0.002 0.128-0.034 0.186v0l-0.06 0.008c-0.371 0.039-0.668 0.075-0.892 0.108-0.224 0.032-0.516 0.08-0.877 0.145v0l-4.389 0.626c-1.27-1.735-2.602-3.623-3.996-5.663v0c0.022 0.528 0.118 1.772 0.29 3.731v0l0.017 0.118 0.337 2.222c-0.062 0.13-0.396 0.238-1.002 0.324v0l-0.209 0.02-0.524 0.075-2.766 0.415-0.899 0.128c-0.178 0.025-0.316-0.025-0.415-0.153v0l-0.034-0.025-0.212-1.483-0.2-1.545z" fill="white"></path><path d="M107.245 15.554l0.212-1.068c0.223-1.313 0.415-2.222 0.575-2.728v0c0.48-2.822 1.003-5.661 1.569-8.516v0c0.049-0.41 0.109-0.822 0.18-1.235v0l0.055-0.325c0.007-0.201 0.024-0.381 0.051-0.538 0.027-0.158 0.06-0.256 0.101-0.297v0c1.37 0.321 2.577 0.57 3.621 0.747 1.044 0.177 1.766 0.28 2.166 0.307v0c0.01 0.022 0.01 0.079 0.001 0.173v0l-0.069-0.012-0.599 3.524-1.278 7.937c-0.009 0.053-0.007 0.1 0.006 0.143v0l-0.003 0.02c0.013 0.043 0.016 0.087 0.008 0.133v0l-0.404 2.848c-0.045 0.067-0.114 0.112-0.205 0.138v0l-0.335-0.057-5.459-0.837c-0.06-0.044-0.137-0.108-0.231-0.191v0z" fill="white"></path><path d="M144.943 22.598v0l-0.321 0.576-1.727 3.221-0.803 1.54-0.232 0.432-0.213 0.418c-0.054 0.031-0.208-0.021-0.46-0.156v0l-0.229-0.123-2.747-1.428c-1.162-0.623-2.025-1.09-2.591-1.401v0c-0.038-0.141 0.101-1.154 0.417-3.039v0l0.701-5.301-0.34-0.126-0.485 0.884-1.265 2.359-1.225 2.368-0.524 0.977c-0.142 0.264-0.274 0.37-0.398 0.319v0c-0.566-0.326-1.109-0.629-1.631-0.908v0l-0.264-0.142-1.33-0.668-0.176-0.094-0.635-0.318-0.017-0.032c-0.096-0.286-0.122-0.47-0.078-0.551v0l0.085-0.159 0.099-0.162 1.865-3.374c1.998-3.726 3.543-6.523 4.636-8.391v0l0.405-0.713c0.028-0.053 2.051 0.972 6.069 3.073v0c0.023 0.042 0.006 0.2-0.05 0.472v0l0.014-0.026-0.041 0.204c-0.229 1.456-0.462 3.144-0.699 5.065-0.246 1.923-0.372 2.905-0.379 2.946v0l0.309 0.143 3.839-7.074c0.025-0.047 0.46 0.156 1.305 0.609v0l2.159 1.214 0.651 0.35c-0.994 1.937-2.225 4.276-3.694 7.016z" fill="white"></path><path d="M163.668 49.549l-0.107 0.091c-0.005 0.004-0.013 0.015-0.024 0.033v0l-0.08 0.029 0.007 0.008-0.016 0.013c-0.005 0.004-0.012 0.006-0.021 0.005v0c-0.385-0.083-1.042-0.517-1.97-1.301-0.927-0.793-1.535-1.36-1.824-1.7-0.293-0.345-0.454-0.54-0.484-0.585v0l-0.346-0.361c-0.37-0.384-0.579-0.604-0.626-0.66v0c-1.793-2.111-2.629-4.165-2.51-6.163 0.125-2.002 1.162-3.83 3.111-5.485 1.948-1.655 3.932-2.318 5.949-1.988 2.013 0.334 3.88 1.513 5.6 3.537v0c0.319 0.375 0.676 0.863 1.071 1.462 0.39 0.603 0.691 1.169 0.903 1.696v0c0.224 0.675 0.293 1.358 0.209 2.05-0.089 0.687-0.322 1.287-0.699 1.799v0c-0.11 0.128-0.291 0.326-0.544 0.594-0.258 0.262-0.444 0.46-0.559 0.592v0c-0.102 0.034-0.233-0.043-0.392-0.23v0l-3.177-3.879c-0.007-0.029 0.04-0.112 0.141-0.251v0l-0.023 0.019c0.333-0.431 0.43-0.82 0.294-1.166v0c-0.058-0.161-0.169-0.337-0.333-0.53-0.168-0.198-0.358-0.355-0.571-0.471-0.212-0.116-0.427-0.183-0.642-0.201-0.206-0.017-0.427-0.004-0.662 0.038-0.23 0.038-0.45 0.107-0.662 0.208-0.216 0.105-0.431 0.218-0.644 0.337-0.218 0.124-0.42 0.261-0.607 0.411-0.186 0.141-0.365 0.28-0.537 0.417-0.171 0.128-0.31 0.242-0.417 0.342-0.102 0.096-0.171 0.158-0.207 0.188v0l-0.517 0.44c-0.325 0.276-0.54 0.485-0.647 0.627-0.101 0.138-0.21 0.292-0.328 0.462-0.118 0.17-0.193 0.317-0.227 0.442v0c-0.106 0.431-0.118 0.807-0.035 1.131 0.083 0.314 0.332 0.714 0.745 1.201 0.409 0.482 0.873 0.879 1.391 1.19v0l1.22-0.97-0.414-0.579-0.103-0.044-0.665-0.784-0.079-0.077 0.036-0.358c0.078-0.083 0.208-0.203 0.391-0.358v0l1.689-1.436c0.081-0.069 0.217-0.079 0.406-0.03v0l0.427 0.502c0.371 0.436 0.781 0.93 1.233 1.482v0l0.058 0.068c0.408 0.501 0.722 0.881 0.941 1.14v0l0.382 0.449 0.156 0.168c0.759 0.893 1.134 1.448 1.126 1.665v0z" fill="white"></path><path d="M174.156 61.559v0l1.854 4.883c0.045 0.125-0.021 0.266-0.198 0.422-0.181 0.164-0.32 0.31-0.416 0.436v0c-0.227 0.294-0.26 0.663-0.1 1.108 0.16 0.445 0.392 0.764 0.696 0.96 0.306 0.201 0.622 0.243 0.947 0.125 0.332-0.12 0.527-0.285 0.585-0.497 0.058-0.212 0.112-0.436 0.161-0.673 0.041-0.241 0.022-0.567-0.055-0.978-0.077-0.411-0.116-0.637-0.117-0.68v0l0.006 0.019-0.058-0.573c-0.059-0.361-0.093-0.671-0.101-0.93v0c-0.132-1.623-0.018-2.87 0.34-3.742 0.362-0.88 1.051-1.503 2.065-1.869v0c0.739-0.266 1.453-0.368 2.141-0.304 0.686 0.057 1.292 0.239 1.82 0.544v0c1.529 0.886 2.696 2.447 3.501 4.683v0c0.641 1.779 0.821 3.292 0.542 4.539v0l-0.004-0.01c-0.235 0.821-0.535 1.431-0.9 1.832-0.369 0.409-0.878 0.765-1.525 1.069v0l-0.333-0.156c-0.643-1.608-1.191-3.042-1.644-4.301v0c-0.135-0.376-0.107-0.641 0.085-0.795v0c0.083-0.065 0.164-0.133 0.245-0.204v0c0.188-0.167 0.197-0.485 0.027-0.955v0l-0.013-0.038c-0.131-0.363-0.328-0.646-0.592-0.848-0.262-0.196-0.475-0.268-0.64-0.215-0.157 0.056-0.276 0.138-0.358 0.245-0.079 0.114-0.136 0.222-0.169 0.327-0.036 0.098-0.054 0.242-0.056 0.434-0.002 0.192 0 0.333 0.004 0.423 0.011 0.088 0.023 0.232 0.039 0.432v0l0.034 0.359c0.008 0.139 0.05 0.552 0.127 1.238 0.075 0.68 0.123 1.254 0.143 1.722v0l0.009-0.004c0.025 1.484-0.208 2.587-0.698 3.308-0.492 0.715-1.18 1.232-2.063 1.55v0c-2.361 0.85-4.4-0.007-6.117-2.573v0c-0.494-0.742-0.951-1.561-1.373-2.456v0c-0.411-1.14-0.651-2.327-0.72-3.562-0.07-1.234 0.207-2.176 0.829-2.824v0c0.271-0.388 0.544-0.681 0.819-0.879 0.275-0.198 0.678-0.425 1.21-0.68v0c0.001 0.021 0.008 0.05 0.021 0.088z" fill="white"></path><path d="M15.886 119.07v0l0.185-0.076 0.583-0.206c0.803-0.284 1.732-0.594 2.785-0.932v0l0.012-0.025 0.208 0.498c0.665 1.601 1.083 2.643 1.253 3.126v0l1.545 4.369c0.528 1.494 0.659 2.842 0.392 4.045v0c-0.177 0.458-0.482 0.884-0.915 1.277-0.424 0.397-0.957 0.709-1.597 0.935v0c-1.23 0.435-2.566-0.018-4.007-1.358v0c0.071 1.02-0.088 1.878-0.478 2.573-0.39 0.696-0.992 1.188-1.809 1.476v0c-1.45 0.513-2.778 0.251-3.984-0.784v0c-0.902-0.754-1.612-1.863-2.129-3.325v0l-0.947-2.801c-0.426-1.205-1.02-2.796-1.782-4.771v0c0.308-0.307 1.736-0.91 4.285-1.812 2.548-0.901 4.682-1.637 6.4-2.209zM9.989 127.319l0.123 0.348c0.572 1.619 1.424 2.229 2.554 1.83v0c0.716-0.253 1.118-0.642 1.207-1.168v0c0.076-0.465-0.018-1.109-0.281-1.934v0l-0.096-0.274-0.588 0.017c-0.66 0.191-1.3 0.396-1.921 0.616-0.621 0.22-0.954 0.408-0.998 0.565zM17.086 127.469v0c0.283 0.041 0.594 0.002 0.932-0.118v0c0.653-0.231 1.009-0.621 1.069-1.172 0.062-0.544 0.002-1.074-0.18-1.589-0.18-0.508-0.458-0.696-0.835-0.563v0c-0.665 0.235-1.344 0.493-2.036 0.773v0l-0.492 0.195c-0.228 0.095-0.318 0.278-0.271 0.551v0l0.219 0.442c0.448 0.908 0.979 1.401 1.594 1.481z" fill="white"></path><path d="M29.339 151.176l-0.414 0.298c-0.005 0.004-0.02 0.013-0.045 0.025v0l-0.023 0.019c-0.231 0.16-0.476 0.35-0.735 0.57-0.264 0.224-0.527 0.48-0.787 0.77-0.256 0.295-0.488 0.614-0.696 0.955-0.209 0.351-0.319 0.706-0.329 1.064v0c-0.004 0.387 0.11 0.718 0.342 0.992 0.237 0.28 0.475 0.479 0.716 0.598 0.235 0.124 0.47 0.2 0.703 0.229 0.229 0.024 0.489-0.004 0.78-0.084v0c0.755-0.22 1.712-0.821 2.871-1.801v0c1.179-0.998 1.889-1.834 2.129-2.508 0.245-0.669 0.137-1.276-0.323-1.82v0c-0.232-0.274-0.5-0.457-0.805-0.549-0.308-0.097-0.577-0.135-0.805-0.116-0.228 0.019-0.618 0.166-1.17 0.441-0.553 0.285-1.022 0.59-1.409 0.917zM25.174 147.165v0l0.181-0.126c0.682-0.472 1.31-0.864 1.883-1.175 0.574-0.311 1.169-0.536 1.785-0.674v0c1.395-0.247 2.743-0.093 4.043 0.465 1.304 0.562 2.429 1.402 3.375 2.52 0.946 1.118 1.582 2.328 1.908 3.631v0c0.196 0.767 0.219 1.48 0.07 2.139v0c-0.238 1.213-0.588 2.176-1.049 2.888-0.466 0.717-1.106 1.419-1.918 2.108v0c-1.809 1.531-3.507 2.322-5.094 2.374v0l-0.755 0.05c-0.944-0.013-1.929-0.321-2.956-0.926-1.022-0.609-1.894-1.332-2.618-2.167v0c-1.226-1.448-1.925-2.893-2.098-4.334v0c-0.308-2.425 0.773-4.683 3.243-6.773z" fill="white"></path><path d="M52.808 171.216l-0.281 0.426c-0.003 0.006-0.014 0.019-0.033 0.039v0l-0.015 0.026c-0.159 0.232-0.32 0.496-0.484 0.793-0.168 0.303-0.322 0.636-0.462 1-0.134 0.367-0.238 0.747-0.311 1.14-0.07 0.402-0.047 0.773 0.07 1.112v0c0.134 0.363 0.358 0.632 0.672 0.806 0.32 0.177 0.614 0.279 0.881 0.304 0.264 0.032 0.51 0.02 0.74-0.036 0.223-0.059 0.456-0.178 0.698-0.355v0c0.628-0.474 1.309-1.376 2.044-2.704v0c0.748-1.351 1.114-2.385 1.099-3.101-0.009-0.713-0.325-1.241-0.948-1.586v0c-0.315-0.174-0.63-0.25-0.947-0.227-0.323 0.019-0.587 0.078-0.795 0.177-0.207 0.099-0.519 0.375-0.937 0.828-0.416 0.462-0.746 0.915-0.991 1.358zM47.49 168.947v0l0.124-0.183c0.47-0.684 0.917-1.273 1.343-1.767 0.426-0.495 0.902-0.916 1.429-1.264v0c1.216-0.727 2.531-1.061 3.944-1.002 1.419 0.062 2.769 0.448 4.051 1.157 1.282 0.709 2.306 1.614 3.073 2.716v0c0.456 0.648 0.731 1.306 0.825 1.974v0c0.208 1.218 0.224 2.243 0.047 3.073-0.181 0.836-0.529 1.72-1.045 2.651v0c-1.147 2.074-2.453 3.417-3.918 4.03v0l-0.688 0.315c-0.887 0.324-1.917 0.385-3.092 0.184-1.171-0.207-2.244-0.572-3.217-1.095v0c-1.66-0.918-2.827-2.02-3.501-3.306v0c-1.15-2.158-0.941-4.652 0.625-7.483z" fill="white"></path><path d="M76.998 180.37l0.722-4.859 0.091-0.855c0.051-0.356 0.118-0.572 0.203-0.647v0c0.179 0.019 0.515 0.063 1.01 0.134 0.494 0.07 0.922 0.135 1.284 0.193v0l1.381 0.217c0.26 0.017 0.634 0.06 1.121 0.129 0.481 0.069 0.778 0.178 0.892 0.329v0c-0.26 1.59-0.547 3.489-0.862 5.697v0l0.338 0.109c0.135-0.243 0.368-0.603 0.698-1.081 0.336-0.47 0.53-0.745 0.582-0.825v0l0.142-0.222c0.035-0.056 0.19-0.292 0.464-0.71 0.275-0.418 0.564-0.891 0.868-1.42 0.304-0.528 0.607-0.936 0.911-1.222v0c0.456 0.058 1.013 0.134 1.672 0.228 0.659 0.094 1.429 0.214 2.309 0.359 0.873 0.151 1.53 0.258 1.972 0.321v0c-2.352 3.108-4.013 5.255-4.983 6.442v0l0.176 0.398c0.216 0.374 0.667 1.41 1.353 3.108 0.679 1.704 1.175 2.918 1.488 3.641v0l0.174 0.409c0.221 0.522 0.328 0.817 0.318 0.882-0.009 0.066-0.038 0.122-0.084 0.17v0l-0.06-0.009c-0.361-0.065-0.656-0.114-0.886-0.146-0.224-0.032-0.522-0.068-0.893-0.107v0l-4.409-0.628c-0.746-2.036-1.505-4.236-2.278-6.598v0c-0.128 0.52-0.383 1.748-0.767 3.683v0l-0.018 0.129-0.299 2.237c-0.096 0.107-0.447 0.118-1.053 0.031v0l-0.206-0.039-0.534-0.076-2.781-0.376-0.91-0.13c-0.185-0.026-0.307-0.114-0.365-0.263v0l-0.026-0.034 0.213-1.493 0.239-1.54z" fill="white"></path><path d="M109.216 190.131l-0.153-1.078c-0.225-1.326-0.346-2.254-0.361-2.785v0c-0.483-2.842-0.929-5.71-1.34-8.605v0c-0.09-0.41-0.171-0.825-0.242-1.245v0l-0.056-0.325c-0.06-0.192-0.103-0.367-0.129-0.525-0.027-0.158-0.028-0.262-0.003-0.314v0c1.412-0.152 2.644-0.317 3.694-0.496 1.057-0.179 1.775-0.322 2.156-0.427v0c0.016 0.017 0.036 0.072 0.058 0.163v0l-0.069 0.012 0.602 3.544 1.423 7.962c0.01 0.059 0.028 0.107 0.055 0.143v0l0.003 0.02c0.025 0.029 0.042 0.067 0.05 0.113v0l0.564 2.841c-0.021 0.078-0.07 0.144-0.149 0.198v0l-0.335 0.057-5.468 1.02c-0.071-0.022-0.165-0.056-0.281-0.104v0z" fill="white"></path><path d="M144.029 169.554v0l0.303 0.586 1.735 3.239 0.843 1.531 0.235 0.44 0.231 0.409c-0.01 0.066-0.141 0.166-0.394 0.302v0l-0.229 0.122-2.727 1.507c-1.168 0.626-2.041 1.089-2.619 1.391v0c-0.138-0.047-0.911-0.728-2.318-2.043v0l-4.049-3.541-0.294 0.214 0.468 0.894 1.273 2.377 1.308 2.357 0.524 0.977c0.141 0.264 0.157 0.433 0.045 0.508v0c-0.59 0.294-1.147 0.58-1.669 0.861v0l-0.273 0.146-1.301 0.742-0.176 0.095-0.624 0.357-0.036-0.004c-0.285-0.081-0.45-0.163-0.494-0.245v0l-0.085-0.158-0.086-0.181-1.785-3.439c-2.006-3.744-3.492-6.596-4.458-8.555v0l-0.369-0.731c-0.028-0.053 1.959-1.178 5.963-3.376v0c0.048 0.005 0.17 0.105 0.366 0.302v0l-0.015-0.026 0.143 0.139c1.092 1.009 2.378 2.148 3.858 3.416 1.478 1.278 2.232 1.931 2.262 1.96v0l0.29-0.178-3.789-7.157c-0.025-0.047 0.388-0.298 1.238-0.754v0l2.225-1.135 0.651-0.349c1.075 1.909 2.352 4.242 3.829 7z" fill="white"></path><path d="M171.643 151.118l0.106 0.09c0.005 0.004 0.017 0.01 0.037 0.018v0l0.041 0.075 0.007-0.008 0.015 0.013c0.01 0.009 0.016 0.018 0.016 0.027v0c-0.02 0.394-0.346 1.117-0.979 2.169-0.628 1.047-1.089 1.744-1.382 2.089-0.293 0.345-0.46 0.535-0.499 0.572v0l-0.307 0.407c-0.32 0.427-0.505 0.671-0.557 0.732v0c-1.803 2.12-3.706 3.28-5.712 3.48-2.005 0.2-3.989-0.534-5.952-2.203-1.958-1.665-2.937-3.524-2.938-5.578-0.001-2.054 0.865-4.101 2.599-6.14v0c0.319-0.375 0.747-0.807 1.283-1.294 0.537-0.487 1.048-0.878 1.535-1.173v0c0.634-0.335 1.302-0.514 2.004-0.537 0.697-0.028 1.328 0.103 1.895 0.392v0c0.149 0.092 0.374 0.244 0.674 0.455 0.305 0.207 0.532 0.356 0.681 0.448v0c0.05 0.095-0.004 0.237-0.164 0.424v0l-3.335 3.784c-0.027 0.012-0.117-0.021-0.27-0.098v0l0.023 0.019c-0.483-0.254-0.885-0.285-1.205-0.094v0c-0.149 0.083-0.308 0.223-0.476 0.421-0.164 0.193-0.288 0.406-0.373 0.64-0.081 0.229-0.112 0.451-0.095 0.666 0.017 0.216 0.063 0.434 0.138 0.655 0.075 0.221 0.181 0.429 0.32 0.626 0.139 0.197 0.289 0.39 0.45 0.58 0.157 0.195 0.321 0.373 0.49 0.534 0.178 0.16 0.347 0.317 0.506 0.469 0.163 0.147 0.3 0.264 0.41 0.349 0.116 0.09 0.192 0.15 0.227 0.18v0l0.518 0.44c0.33 0.28 0.571 0.459 0.723 0.537 0.158 0.082 0.328 0.169 0.51 0.263 0.187 0.089 0.344 0.14 0.473 0.153v0c0.447 0.039 0.821-0.01 1.122-0.147 0.31-0.138 0.672-0.451 1.086-0.938 0.414-0.487 0.733-1.011 0.956-1.573v0l-1.162-1.053-0.505 0.501-0.026 0.108-0.673 0.792-0.07 0.097-0.36 0.022c-0.095-0.063-0.236-0.175-0.423-0.334v0l-1.697-1.442c-0.086-0.073-0.121-0.207-0.103-0.403v0l0.433-0.509c0.371-0.436 0.794-0.924 1.27-1.463v0l0.065-0.076c0.428-0.483 0.753-0.854 0.972-1.113v0l0.389-0.457 0.141-0.181c0.763-0.898 1.257-1.36 1.481-1.388v0z" fill="white"></path><path d="M177.607 133.678v0l1.698-4.971c0.045-0.125 0.189-0.19 0.432-0.195 0.245-0.011 0.444-0.034 0.598-0.071v0c0.362-0.082 0.625-0.348 0.788-0.798 0.16-0.445 0.187-0.842 0.079-1.192-0.109-0.344-0.33-0.576-0.662-0.696-0.332-0.12-0.588-0.117-0.768 0.01-0.178 0.12-0.362 0.259-0.553 0.416-0.185 0.16-0.379 0.422-0.582 0.788-0.203 0.366-0.317 0.565-0.343 0.598v0l0.007-0.019-0.334 0.485c-0.187 0.322-0.36 0.585-0.519 0.789v0c-0.936 1.339-1.825 2.233-2.665 2.68-0.847 0.445-1.781 0.483-2.802 0.114v0c-0.739-0.267-1.357-0.642-1.855-1.126-0.489-0.488-0.841-1.022-1.056-1.602v0c-0.616-1.666-0.519-3.623 0.292-5.871v0c0.644-1.785 1.477-3.073 2.499-3.865v0l-0.003 0.009c0.705-0.482 1.33-0.762 1.875-0.841 0.545-0.079 1.167-0.028 1.866 0.153v0l0.156 0.332c-0.529 1.663-1.022 3.127-1.479 4.392v0c-0.138 0.382-0.332 0.567-0.582 0.555v0c-0.105-0.003-0.212-0.002-0.319 0.001v0c-0.257 0.006-0.471 0.247-0.643 0.724v0l-0.014 0.037c-0.133 0.369-0.159 0.714-0.076 1.035 0.074 0.324 0.192 0.519 0.352 0.583 0.163 0.059 0.31 0.073 0.441 0.042 0.127-0.039 0.237-0.088 0.329-0.146 0.092-0.059 0.202-0.157 0.33-0.295 0.124-0.146 0.214-0.259 0.27-0.338 0.048-0.075 0.13-0.194 0.246-0.357v0l0.203-0.298c0.085-0.118 0.317-0.466 0.695-1.045 0.379-0.578 0.712-1.052 1.002-1.422v0l-0.01-0.003c0.924-1.167 1.808-1.871 2.652-2.112 0.844-0.24 1.711-0.2 2.6 0.121v0c2.38 0.859 3.409 2.83 3.089 5.914v0c-0.092 0.901-0.262 1.834-0.511 2.798v0c-0.414 1.146-0.992 2.218-1.734 3.218-0.743 0.999-1.562 1.553-2.457 1.661v0c-0.46 0.117-0.859 0.164-1.198 0.141-0.338-0.023-0.797-0.107-1.374-0.252v0c0.013-0.017 0.026-0.044 0.04-0.081z" fill="white"></path><path d="M1.9 96.953c0-3.244 2.63-5.875 5.875-5.875 3.244 0 5.875 2.63 5.874 5.875 0 3.244-2.63 5.875-5.874 5.874-3.244 0-5.875-2.63-5.875-5.874z" fill="white"></path><path d="M177.645 96.953c0-3.244 2.63-5.875 5.875-5.875 3.244 0 5.875 2.63 5.874 5.875 0 3.244-2.63 5.875-5.874 5.874-3.244 0-5.875-2.63-5.875-5.874z" fill="white"></path></g><g id="SvgjsG2182"></g></svg></g></svg></g></svg></g><defs><mask></mask></defs><mask><g id="SvgjsG2181"><svg viewBox="0 0 395.52 122.42459078899194" height="122.42459078899194" width="395.52"><g><svg viewBox="0 0 618.0196028009897 191.2944907273627" height="122.42459078899194" width="395.52"><g transform="matrix(1,0,0,1,222.49960280098963,69.21074857991094)"><svg viewBox="0 0 395.52000000000004 52.872993567540824" height="52.872993567540824" width="395.52000000000004"><g id="SvgjsG2180"><svg viewBox="0 0 395.52000000000004 52.872993567540824" height="52.872993567540824" width="395.52000000000004" id="SvgjsSvg2179"><g><svg viewBox="0 0 395.52000000000004 52.872993567540824" height="52.872993567540824" width="395.52000000000004"><g transform="matrix(1,0,0,1,0,0)"><svg width="395.52000000000004" viewBox="2.54 -38.04 296.03 39.58" height="52.872993567540824" data-palette-color="url(#c2f7c458-c737-416a-aadd-98fce3164e35)"><path d="M2.66-27.25L2.66-27.25 2.64-27.73 2.64-29.25Q2.64-32.4 2.76-36.47L2.76-36.47 2.71-36.52 4.03-36.6Q10.4-36.94 12.3-36.94L12.3-36.94 23.68-36.94Q29.52-36.94 33.37-34.52L33.37-34.52Q34.74-33.35 35.6-31.37 36.45-29.39 36.45-26.9L36.45-26.9Q36.45-22.09 30-18.73L30-18.73Q33.64-17.72 35.58-15.52 37.52-13.31 37.52-10.11L37.52-10.11Q37.52-4.44 32.45-1.51L32.45-1.51Q28.71 0.68 23 0.68L23 0.68 15.72 0.59Q11.01 0.59 3.22 0.81L3.22 0.81Q2.54-0.63 2.54-10.6 2.54-20.56 2.66-27.25ZM16.94-6.81L17.85-6.81Q24.17-6.81 24.17-11.23L24.17-11.23Q24.17-14.04 22.46-14.99L22.46-14.99Q20.92-15.82 17.75-15.92L17.75-15.92 17.04-15.92 16.6-14.55Q16.43-12.04 16.43-9.61 16.43-7.18 16.94-6.81L16.94-6.81ZM23.1-23.14L23.1-23.14Q23.58-24.07 23.58-25.39L23.58-25.39Q23.58-27.95 21.75-28.83 19.92-29.71 17.92-29.71 15.92-29.71 15.92-28.25L15.92-28.25Q15.92-25.63 16.04-22.9L16.04-22.9 16.09-21.61Q16.14-20.68 17.16-20.51L17.16-20.51 18.36-20.65Q22.07-21.09 23.1-23.14ZM53.34-19.8L53.24-18.55Q53.24-18.53 53.22-18.43L53.22-18.43 53.22-18.36Q53.12-17.33 53.12-16.06 53.12-14.79 53.33-13.38 53.54-11.96 54.01-10.55 54.49-9.13 55.49-8.25L55.49-8.25Q56.56-7.32 57.9-7.32 59.23-7.32 60.14-7.7 61.06-8.08 61.68-8.67 62.3-9.25 62.77-10.25L62.77-10.25Q63.94-12.92 63.94-18.51L63.94-18.51Q63.94-24.19 62.63-26.48 61.33-28.76 58.69-28.76L58.69-28.76Q57.37-28.76 56.38-28.13 55.39-27.49 54.89-26.81 54.39-26.12 53.87-23.9 53.34-21.68 53.34-19.8L53.34-19.8ZM39.21-18.36L39.21-18.36 39.26-18.9Q39.55-21.95 40.04-24.3 40.52-26.66 41.62-28.71L41.62-28.71Q44.24-33.23 48.91-35.56 53.59-37.89 58.99-37.89 64.4-37.89 68.82-35.72L68.82-35.72Q71.46-34.42 72.95-32.45L72.95-32.45Q75.8-28.88 76.71-25.88 77.61-22.88 77.61-18.95L77.61-18.95Q77.61-10.21 74-5.62L74-5.62 72.87-4.13Q70.6-1.49 66.45-0.06 62.3 1.37 58.23 1.42L58.23 1.42Q51.24 1.42 46.77-1.51L46.77-1.51Q39.21-6.42 39.21-18.36ZM93.5-19.8L93.4-18.55Q93.4-18.53 93.38-18.43L93.38-18.43 93.38-18.36Q93.28-17.33 93.28-16.06 93.28-14.79 93.49-13.38 93.7-11.96 94.17-10.55 94.65-9.13 95.65-8.25L95.65-8.25Q96.72-7.32 98.05-7.32 99.38-7.32 100.3-7.7 101.22-8.08 101.84-8.67 102.46-9.25 102.92-10.25L102.92-10.25Q104.1-12.92 104.1-18.51L104.1-18.51Q104.1-24.19 102.79-26.48 101.48-28.76 98.85-28.76L98.85-28.76Q97.53-28.76 96.54-28.13 95.55-27.49 95.05-26.81 94.55-26.12 94.03-23.9 93.5-21.68 93.5-19.8L93.5-19.8ZM79.37-18.36L79.37-18.36 79.41-18.9Q79.71-21.95 80.2-24.3 80.68-26.66 81.78-28.71L81.78-28.71Q84.39-33.23 89.07-35.56 93.75-37.89 99.15-37.89 104.56-37.89 108.98-35.72L108.98-35.72Q111.62-34.42 113.11-32.45L113.11-32.45Q115.96-28.88 116.87-25.88 117.77-22.88 117.77-18.95L117.77-18.95Q117.77-10.21 114.16-5.62L114.16-5.62 113.03-4.13Q110.76-1.49 106.61-0.06 102.46 1.37 98.38 1.42L98.38 1.42Q91.4 1.42 86.93-1.51L86.93-1.51Q79.37-6.42 79.37-18.36ZM121.4-21.12L121.48-33.2 121.4-35.3Q121.4-36.65 121.67-36.96L121.67-36.96Q122.33-36.99 124.17-36.99 126.02-36.99 127.36-36.96L127.36-36.96 130.8-36.91Q131.76-36.99 133.56-36.99 135.37-36.99 135.86-36.5L135.86-36.5Q135.73-30.54 135.73-22.34L135.73-22.34 136.59-22.19Q136.96-23.14 137.92-25.05 138.88-26.95 139.03-27.27L139.03-27.27 139.3-27.86Q139.4-28.08 140.19-29.75 140.98-31.42 141.81-33.51 142.64-35.6 143.6-36.79L143.6-36.79Q145.31-36.82 147.76-36.82 150.21-36.82 153.48-36.73 156.76-36.65 158.39-36.65L158.39-36.65Q151.43-24.07 148.5-19.24L148.5-19.24 149.06-18.33Q150.07-17.09 153.43-11.23 156.8-5.37 158.32-2.91L158.32-2.91 158.9-1.95Q159.98-0.17 159.98 0.07 159.98 0.32 159.83 0.51L159.83 0.51 159.68 0.51Q158.32 0.46 157.48 0.46 156.63 0.46 155.27 0.51L155.27 0.51 144.3 0.51Q140.54-6.52 136.49-14.75L136.49-14.75Q136.3-12.79 135.91-5.52L135.91-5.52 135.91-5.2 135.95 0.34Q135.66 0.78 133.39 0.78L133.39 0.78 132.88 0.76 131.56 0.76 124.65 0.81 122.4 0.81Q121.72 0.81 121.43 0.29L121.43 0.29 121.35 0.22 121.35-3.49 121.4-7.32 121.4-21.12ZM161.29 0.07L161.37-2.61Q161.37-7.57 161.64-9.5L161.64-9.5Q161.64-20.12 161.93-30.91L161.93-30.91Q161.86-32.45 161.86-34.01L161.86-34.01 161.86-34.81Q161.76-35.57 161.76-36.16 161.76-36.74 161.88-36.91L161.88-36.91Q167.1-36.6 171.03-36.6 174.97-36.6 176.43-36.74L176.43-36.74Q176.48-36.67 176.5-36.33L176.5-36.33 176.33-36.33 176.33-27.49 176.5-7.62Q176.5-7.4 176.58-7.25L176.58-7.25 176.58-7.2Q176.65-7.06 176.65-6.88L176.65-6.88 176.85 0.22Q176.72 0.49 176.41 0.63L176.41 0.63 175.58 0.63 161.9 0.85Q161.66 0.73 161.27 0.49L161.27 0.49 161.29 0.07ZM219.13-17.09L219.13-17.09 219.1-15.45 219.1-6.42 219.15-2.12 219.15-0.9 219.18 0.24Q219.03 0.44 217.98 0.44L217.98 0.44 217.35 0.44 209.68 0.54Q204.8 0.54 202.4 0.51L202.4 0.51Q202.04 0.12 199.74-6.59L199.74-6.59 195.08-18.97 194.2-18.85 194.18-16.36 194.18-9.74 194.27-3.13 194.27-0.39Q194.27 0.71 193.79 0.76L193.79 0.76Q191.37 0.68 189.17 0.68L189.17 0.68 188.42 0.68 184.73 0.78 184.24 0.78 182.48 0.83 182.41 0.78Q181.6 0.02 181.6-0.32L181.6-0.32 181.6-0.76 181.63-1.25 181.75-10.77Q181.75-26.44 182.04-34.47L182.04-34.47 182.09-36.5Q182.09-36.72 198.91-36.89L198.91-36.89Q199.06-36.79 199.35-35.82L199.35-35.82 199.35-35.89 199.5-35.4Q201.31-30.22 203.89-23.52 206.48-16.82 206.53-16.67L206.53-16.67 207.36-16.72 207.46-36.62Q207.46-36.82 211.02-36.82L211.02-36.82 217.15-36.69 218.96-36.69Q219.13-28.61 219.13-17.09ZM260.95-1.76L260.95-1.42Q260.95-1.39 260.97-1.32L260.97-1.32 260.9-1.12 260.92-1.12 260.92-1.07Q260.92-1.03 260.9-1L260.9-1Q259.75-0.12 255.3 0.61 250.84 1.34 249.17 1.34 247.49 1.34 247.3 1.32L247.3 1.32 246.05 1.39Q244.1 1.51 243.81 1.51L243.81 1.51Q233.55 1.51 228.2-3.64 222.84-8.79 222.84-18.27 222.84-27.76 228.61-32.67 234.38-37.57 244.25-37.57L244.25-37.57Q246.05-37.57 248.7-37.23 251.35-36.89 253.35-36.23L253.35-36.23Q255.8-35.23 257.54-33.34 259.29-31.45 259.82-29.15L259.82-29.15Q259.92-28.52 260.06-27.16 260.19-25.81 260.29-25.17L260.29-25.17Q260.14-24.8 259.24-24.8L259.24-24.8 246.84-25.02Q246.74-25.07 246.59-25.68L246.59-25.68 246.59-25.61Q246.15-27.59 244.86-28.03L244.86-28.03Q244.27-28.25 243.32-28.25 242.37-28.25 241.53-27.93 240.68-27.61 240.12-27.05 239.56-26.49 239.12-25.74 238.68-25 238.46-24.15 238.24-23.29 238.07-22.39 237.9-21.48 237.86-20.61 237.83-19.73 237.79-18.92 237.75-18.12 237.78-17.59 237.8-17.07 237.8-16.89L237.8-16.89 237.8-15.21Q237.8-13.62 237.95-13 238.1-12.38 238.29-11.63 238.49-10.89 238.75-10.5L238.75-10.5Q239.71-9.16 240.82-8.63 241.93-8.11 244.28-8.11 246.64-8.11 248.76-8.81L248.76-8.81 248.89-12.67 247.13-12.82 246.88-12.7 244.35-12.7 244.05-12.67 243.44-13.31Q243.39-13.72 243.39-14.62L243.39-14.62 243.39-20.09Q243.39-20.51 243.98-20.92L243.98-20.92 245.61-20.92Q247.74-20.92 250.38-20.87L250.38-20.87 250.62-20.87Q253.01-20.83 254.26-20.83L254.26-20.83 255.72-20.83 256.28-20.85Q260.63-20.85 261.24-20.29L261.24-20.29 260.95-1.76ZM264.12-10.08L264.12-10.08 277.03-10.3Q277.52-10.3 277.85-9.47 278.18-8.64 278.5-8.15L278.5-8.15Q279.25-6.98 281-6.98 282.75-6.98 283.82-7.8 284.89-8.62 284.89-9.91 284.89-11.21 284.24-11.68 283.58-12.16 282.8-12.61 282.01-13.06 280.49-13.31 278.96-13.55 278.82-13.6L278.82-13.6 278.86-13.6 277.47-13.96Q276.13-14.21 275.23-14.5L275.23-14.5Q269.39-16.06 266.79-18.43 264.19-20.8 264.19-24.8L264.19-24.8Q264.19-27.71 265.27-30.03 266.34-32.35 268.07-33.81L268.07-33.81Q273.08-38.04 281.89-38.04L281.89-38.04Q288.9-38.04 292.9-35.5L292.9-35.5 292.88-35.5Q295.44-33.64 296.39-31.85 297.35-30.05 297.59-27.42L297.59-27.42 296.96-26.78Q290.53-26.54 285.58-26.54L285.58-26.54Q284.09-26.54 283.8-27.42L283.8-27.42Q283.67-27.78 283.53-28.15L283.53-28.15Q283.19-29.03 281.33-29.03L281.33-29.03 281.23-29.03Q279.79-29.03 278.77-28.36 277.74-27.69 277.73-27.05 277.72-26.42 278-26 278.28-25.59 278.6-25.34 278.91-25.1 279.57-24.84 280.23-24.58 280.56-24.5 280.89-24.41 281.6-24.22L281.6-24.22 282.45-24Q282.97-23.85 285.44-23.27 287.92-22.68 289.58-22.14L289.58-22.14 289.58-22.17Q294.78-20.41 296.67-17.79 298.57-15.16 298.57-11.67L298.57-11.67Q298.57-2.37 287.46 0.39L287.46 0.39Q284.24 1.2 280.57 1.54L280.57 1.54Q276.08 1.54 271.69 0.22 267.29-1.1 265.8-4.08L265.8-4.08Q264.8-5.52 264.46-6.73 264.12-7.93 263.9-10.11L263.9-10.11Q263.97-10.08 264.12-10.08Z" opacity="1" transform="matrix(1,0,0,1,0,0)" fill="black" class="wordmark-text-0" id="SvgjsPath2178"></path></svg></g></svg></g></svg></g></svg></g><g><svg viewBox="0 0 191.2944907273627 191.2944907273627" height="191.2944907273627" width="191.2944907273627"><g><svg viewBox="0 0 191.2944907273627 191.2944907273627" height="191.2944907273627" width="191.2944907273627"><g transform="matrix(1,0,0,1,50.55870149803292,58.33258837142058)"><svg viewBox="0 0 90.17708773129687 74.62931398452154" height="74.62931398452154" width="90.17708773129687"><g><svg xmlns="http://www.w3.org/2000/svg" xmlns:xlink="http://www.w3.org/1999/xlink" version="1.1" x="0" y="0" viewBox="12 20 58 48" enable-background="new 0 0 80 80" xml:space="preserve" height="74.62931398452154" width="90.17708773129687" class="icon-dxe-0" data-fill-palette-color="accent" id="SvgjsSvg2177"><g fill="black"><g fill="black"><path fill="black" d="M68 68H14V24H68zM16 66H66V26H16z"></path></g><g fill="black"><path fill="black" d="M47 68H35V52H47zM37 66H45V54H37z"></path></g><g fill="black"><rect x="15" y="62" fill="black" width="21" height="2"></rect></g><g fill="black"><rect x="46" y="62" fill="black" width="21" height="2"></rect></g><g fill="black"><rect x="42" y="59" fill="black" width="2" height="2"></rect></g><g fill="black"><path fill="black" d="M70 26H12V20H70zM14 24H68V22H14z"></path></g><g fill="black"><path fill="black" d="M30.8 45.1L26.8 43 22.8 45.1 23.6 40.7 20.4 37.6 24.8 37 26.8 33 28.8 37 33.2 37.6 30 40.7zM26.8 40.8L28.1 41.5 27.9 40 29 39 27.5 38.8 26.8 37.5 26.1 38.8 24.7 39 25.8 40 25.5 41.5z"></path></g><g fill="black"><path fill="black" d="M45 45.1L41 43 37 45.1 37.8 40.7 34.6 37.6 39 37 41 33 43 37 47.4 37.6 44.2 40.7zM41 40.8L42.3 41.5 42.1 40 43.2 39 41.7 38.8 41 37.4 40.3 38.7 38.9 39 40 40 39.7 41.5z"></path></g><g fill="black"><path fill="black" d="M59.8 45.1L55.8 43 51.8 45.1 52.6 40.7 49.4 37.6 53.8 37 55.8 33 57.8 37 62.2 37.6 59 40.7zM55.8 40.8L57.1 41.5 56.9 40 58 39 56.5 38.8 55.8 37.5 55.1 38.8 53.7 39 54.8 40 54.5 41.5z"></path></g></g></svg></g></svg></g><g id="SvgjsG2176"><path d="M6.253 71.433v0l-0.192-0.057-0.574-0.202c-0.804-0.284-1.718-0.624-2.743-1.021v0l-0.025 0.012 0.148-0.509c0.484-1.651 0.811-2.718 0.981-3.201v0l1.532-4.341c0.523-1.482 1.265-2.603 2.225-3.366v0c0.425-0.245 0.927-0.386 1.505-0.422 0.58-0.043 1.187 0.048 1.821 0.272v0c1.218 0.43 1.968 1.616 2.249 3.557v0c0.577-0.834 1.235-1.4 1.975-1.696 0.732-0.293 1.505-0.295 2.322-0.007v0c1.438 0.507 2.303 1.536 2.596 3.087v0c0.224 1.145 0.079 2.446-0.435 3.903v0l-1.014 2.755c-0.423 1.199-0.956 2.8-1.6 4.804v0c-0.43 0.039-1.91-0.388-4.441-1.281-2.53-0.893-4.64-1.655-6.33-2.287zM15.961 68.739l0.123-0.349c0.567-1.607 0.289-2.609-0.835-3.005v0c-0.709-0.25-1.263-0.202-1.66 0.144v0c-0.353 0.32-0.684 0.878-0.993 1.673v0l-0.096 0.273 0.467 0.355c0.625 0.27 1.245 0.513 1.861 0.731 0.615 0.217 0.993 0.276 1.133 0.178zM10.564 64.197v0c-0.194-0.21-0.458-0.373-0.79-0.49v0c-0.653-0.23-1.174-0.153-1.564 0.231-0.384 0.387-0.665 0.835-0.845 1.343-0.179 0.509-0.084 0.828 0.286 0.959v0c0.665 0.235 1.352 0.459 2.06 0.674v0l0.493 0.164c0.243 0.072 0.433-0.017 0.57-0.265v0l0.103-0.472c0.222-0.988 0.117-1.702-0.313-2.144z" fill="black"></path><path d="M26.123 40.048l0.364 0.359c0.005 0.004 0.016 0.018 0.031 0.04v0l0.023 0.019c0.191 0.197 0.417 0.404 0.676 0.624 0.264 0.224 0.561 0.435 0.889 0.634 0.329 0.209 0.68 0.387 1.051 0.536 0.371 0.148 0.737 0.196 1.096 0.142v0c0.373-0.06 0.675-0.227 0.908-0.501 0.232-0.275 0.39-0.538 0.472-0.791 0.083-0.253 0.119-0.497 0.109-0.732-0.015-0.23-0.083-0.48-0.204-0.748v0c-0.347-0.703-1.095-1.54-2.245-2.512v0c-1.174-0.993-2.109-1.552-2.804-1.678-0.701-0.13-1.279 0.074-1.735 0.613v0c-0.232 0.275-0.368 0.569-0.407 0.884-0.04 0.315-0.031 0.584 0.025 0.806 0.051 0.218 0.258 0.576 0.621 1.075 0.367 0.494 0.744 0.904 1.13 1.23zM22.886 44.79v0l-0.155-0.157c-0.583-0.589-1.073-1.138-1.47-1.648-0.402-0.514-0.72-1.062-0.953-1.642v0c-0.47-1.321-0.538-2.669-0.204-4.043 0.334-1.365 0.972-2.604 1.914-3.718 0.941-1.113 2.02-1.936 3.237-2.467v0c0.724-0.32 1.419-0.461 2.083-0.423v0c1.231 0.029 2.233 0.214 3.008 0.556 0.779 0.336 1.573 0.846 2.382 1.529v0c1.8 1.521 2.857 3.056 3.17 4.603v0l0.168 0.73c0.149 0.928 0.009 1.943-0.418 3.046-0.432 1.099-0.998 2.072-1.697 2.92v0c-1.216 1.439-2.513 2.365-3.892 2.778v0c-2.327 0.7-4.718 0.013-7.173-2.064z" fill="black"></path><path d="M50.761 19.037l0.212 0.465c0.003 0.006 0.008 0.022 0.015 0.049v0l0.015 0.026c0.109 0.252 0.246 0.526 0.41 0.823 0.168 0.303 0.37 0.606 0.606 0.909 0.234 0.312 0.498 0.603 0.792 0.874 0.294 0.271 0.619 0.445 0.974 0.522v0c0.37 0.077 0.712 0.028 1.026-0.146 0.315-0.174 0.555-0.365 0.723-0.571 0.167-0.207 0.288-0.422 0.361-0.646 0.068-0.22 0.093-0.478 0.075-0.772v0c-0.075-0.781-0.476-1.829-1.205-3.145v0c-0.745-1.345-1.42-2.2-2.025-2.565-0.609-0.371-1.222-0.385-1.839-0.044v0c-0.315 0.174-0.546 0.401-0.696 0.682-0.149 0.28-0.237 0.534-0.263 0.762-0.029 0.222 0.037 0.63 0.199 1.225 0.168 0.592 0.374 1.109 0.62 1.552zM46.049 22.32v0l-0.089-0.202c-0.336-0.758-0.599-1.445-0.788-2.064-0.193-0.624-0.295-1.248-0.307-1.873v0c0.03-1.402 0.446-2.686 1.246-3.852 0.798-1.157 1.834-2.089 3.11-2.794 1.275-0.706 2.576-1.092 3.902-1.157v0c0.791-0.042 1.49 0.073 2.098 0.345v0c1.14 0.465 2.012 0.994 2.614 1.589 0.609 0.591 1.17 1.35 1.683 2.276v0c1.142 2.062 1.584 3.871 1.328 5.428v0l-0.103 0.742c-0.191 0.92-0.682 1.82-1.473 2.699-0.795 0.874-1.669 1.582-2.624 2.127v0c-1.648 0.913-3.19 1.317-4.625 1.213v0c-2.424-0.172-4.415-1.665-5.972-4.477z" fill="black"></path><path d="M76.28 8.33l-0.66-4.839-0.151-0.846c-0.051-0.356-0.046-0.582 0.014-0.677v0c0.17-0.031 0.503-0.082 0.997-0.153 0.494-0.071 0.92-0.128 1.277-0.172v0l1.377-0.176c0.254-0.056 0.622-0.119 1.103-0.188 0.481-0.069 0.797-0.046 0.947 0.067v0c0.194 1.593 0.447 3.484 0.759 5.671v0l0.354 0.01c0.057-0.264 0.18-0.668 0.372-1.213 0.185-0.544 0.287-0.861 0.308-0.952v0l0.075-0.252c0.018-0.063 0.1-0.334 0.247-0.812 0.154-0.473 0.3-1.005 0.438-1.596 0.145-0.586 0.32-1.058 0.524-1.416v0c0.46-0.072 1.017-0.155 1.67-0.249 0.652-0.093 1.419-0.189 2.299-0.287 0.873-0.104 1.527-0.188 1.962-0.25v0c-1.373 3.619-2.36 6.13-2.96 7.534v0l0.279 0.333c0.311 0.292 1.029 1.154 2.155 2.588 1.12 1.441 1.928 2.459 2.423 3.053v0l0.292 0.352c0.358 0.433 0.541 0.683 0.551 0.749 0.009 0.066-0.002 0.128-0.034 0.186v0l-0.06 0.008c-0.371 0.039-0.668 0.075-0.892 0.108-0.224 0.032-0.516 0.08-0.877 0.145v0l-4.389 0.626c-1.27-1.735-2.602-3.623-3.996-5.663v0c0.022 0.528 0.118 1.772 0.29 3.731v0l0.017 0.118 0.337 2.222c-0.062 0.13-0.396 0.238-1.002 0.324v0l-0.209 0.02-0.524 0.075-2.766 0.415-0.899 0.128c-0.178 0.025-0.316-0.025-0.415-0.153v0l-0.034-0.025-0.212-1.483-0.2-1.545z" fill="black"></path><path d="M107.245 15.554l0.212-1.068c0.223-1.313 0.415-2.222 0.575-2.728v0c0.48-2.822 1.003-5.661 1.569-8.516v0c0.049-0.41 0.109-0.822 0.18-1.235v0l0.055-0.325c0.007-0.201 0.024-0.381 0.051-0.538 0.027-0.158 0.06-0.256 0.101-0.297v0c1.37 0.321 2.577 0.57 3.621 0.747 1.044 0.177 1.766 0.28 2.166 0.307v0c0.01 0.022 0.01 0.079 0.001 0.173v0l-0.069-0.012-0.599 3.524-1.278 7.937c-0.009 0.053-0.007 0.1 0.006 0.143v0l-0.003 0.02c0.013 0.043 0.016 0.087 0.008 0.133v0l-0.404 2.848c-0.045 0.067-0.114 0.112-0.205 0.138v0l-0.335-0.057-5.459-0.837c-0.06-0.044-0.137-0.108-0.231-0.191v0z" fill="black"></path><path d="M144.943 22.598v0l-0.321 0.576-1.727 3.221-0.803 1.54-0.232 0.432-0.213 0.418c-0.054 0.031-0.208-0.021-0.46-0.156v0l-0.229-0.123-2.747-1.428c-1.162-0.623-2.025-1.09-2.591-1.401v0c-0.038-0.141 0.101-1.154 0.417-3.039v0l0.701-5.301-0.34-0.126-0.485 0.884-1.265 2.359-1.225 2.368-0.524 0.977c-0.142 0.264-0.274 0.37-0.398 0.319v0c-0.566-0.326-1.109-0.629-1.631-0.908v0l-0.264-0.142-1.33-0.668-0.176-0.094-0.635-0.318-0.017-0.032c-0.096-0.286-0.122-0.47-0.078-0.551v0l0.085-0.159 0.099-0.162 1.865-3.374c1.998-3.726 3.543-6.523 4.636-8.391v0l0.405-0.713c0.028-0.053 2.051 0.972 6.069 3.073v0c0.023 0.042 0.006 0.2-0.05 0.472v0l0.014-0.026-0.041 0.204c-0.229 1.456-0.462 3.144-0.699 5.065-0.246 1.923-0.372 2.905-0.379 2.946v0l0.309 0.143 3.839-7.074c0.025-0.047 0.46 0.156 1.305 0.609v0l2.159 1.214 0.651 0.35c-0.994 1.937-2.225 4.276-3.694 7.016z" fill="black"></path><path d="M163.668 49.549l-0.107 0.091c-0.005 0.004-0.013 0.015-0.024 0.033v0l-0.08 0.029 0.007 0.008-0.016 0.013c-0.005 0.004-0.012 0.006-0.021 0.005v0c-0.385-0.083-1.042-0.517-1.97-1.301-0.927-0.793-1.535-1.36-1.824-1.7-0.293-0.345-0.454-0.54-0.484-0.585v0l-0.346-0.361c-0.37-0.384-0.579-0.604-0.626-0.66v0c-1.793-2.111-2.629-4.165-2.51-6.163 0.125-2.002 1.162-3.83 3.111-5.485 1.948-1.655 3.932-2.318 5.949-1.988 2.013 0.334 3.88 1.513 5.6 3.537v0c0.319 0.375 0.676 0.863 1.071 1.462 0.39 0.603 0.691 1.169 0.903 1.696v0c0.224 0.675 0.293 1.358 0.209 2.05-0.089 0.687-0.322 1.287-0.699 1.799v0c-0.11 0.128-0.291 0.326-0.544 0.594-0.258 0.262-0.444 0.46-0.559 0.592v0c-0.102 0.034-0.233-0.043-0.392-0.23v0l-3.177-3.879c-0.007-0.029 0.04-0.112 0.141-0.251v0l-0.023 0.019c0.333-0.431 0.43-0.82 0.294-1.166v0c-0.058-0.161-0.169-0.337-0.333-0.53-0.168-0.198-0.358-0.355-0.571-0.471-0.212-0.116-0.427-0.183-0.642-0.201-0.206-0.017-0.427-0.004-0.662 0.038-0.23 0.038-0.45 0.107-0.662 0.208-0.216 0.105-0.431 0.218-0.644 0.337-0.218 0.124-0.42 0.261-0.607 0.411-0.186 0.141-0.365 0.28-0.537 0.417-0.171 0.128-0.31 0.242-0.417 0.342-0.102 0.096-0.171 0.158-0.207 0.188v0l-0.517 0.44c-0.325 0.276-0.54 0.485-0.647 0.627-0.101 0.138-0.21 0.292-0.328 0.462-0.118 0.17-0.193 0.317-0.227 0.442v0c-0.106 0.431-0.118 0.807-0.035 1.131 0.083 0.314 0.332 0.714 0.745 1.201 0.409 0.482 0.873 0.879 1.391 1.19v0l1.22-0.97-0.414-0.579-0.103-0.044-0.665-0.784-0.079-0.077 0.036-0.358c0.078-0.083 0.208-0.203 0.391-0.358v0l1.689-1.436c0.081-0.069 0.217-0.079 0.406-0.03v0l0.427 0.502c0.371 0.436 0.781 0.93 1.233 1.482v0l0.058 0.068c0.408 0.501 0.722 0.881 0.941 1.14v0l0.382 0.449 0.156 0.168c0.759 0.893 1.134 1.448 1.126 1.665v0z" fill="black"></path><path d="M174.156 61.559v0l1.854 4.883c0.045 0.125-0.021 0.266-0.198 0.422-0.181 0.164-0.32 0.31-0.416 0.436v0c-0.227 0.294-0.26 0.663-0.1 1.108 0.16 0.445 0.392 0.764 0.696 0.96 0.306 0.201 0.622 0.243 0.947 0.125 0.332-0.12 0.527-0.285 0.585-0.497 0.058-0.212 0.112-0.436 0.161-0.673 0.041-0.241 0.022-0.567-0.055-0.978-0.077-0.411-0.116-0.637-0.117-0.68v0l0.006 0.019-0.058-0.573c-0.059-0.361-0.093-0.671-0.101-0.93v0c-0.132-1.623-0.018-2.87 0.34-3.742 0.362-0.88 1.051-1.503 2.065-1.869v0c0.739-0.266 1.453-0.368 2.141-0.304 0.686 0.057 1.292 0.239 1.82 0.544v0c1.529 0.886 2.696 2.447 3.501 4.683v0c0.641 1.779 0.821 3.292 0.542 4.539v0l-0.004-0.01c-0.235 0.821-0.535 1.431-0.9 1.832-0.369 0.409-0.878 0.765-1.525 1.069v0l-0.333-0.156c-0.643-1.608-1.191-3.042-1.644-4.301v0c-0.135-0.376-0.107-0.641 0.085-0.795v0c0.083-0.065 0.164-0.133 0.245-0.204v0c0.188-0.167 0.197-0.485 0.027-0.955v0l-0.013-0.038c-0.131-0.363-0.328-0.646-0.592-0.848-0.262-0.196-0.475-0.268-0.64-0.215-0.157 0.056-0.276 0.138-0.358 0.245-0.079 0.114-0.136 0.222-0.169 0.327-0.036 0.098-0.054 0.242-0.056 0.434-0.002 0.192 0 0.333 0.004 0.423 0.011 0.088 0.023 0.232 0.039 0.432v0l0.034 0.359c0.008 0.139 0.05 0.552 0.127 1.238 0.075 0.68 0.123 1.254 0.143 1.722v0l0.009-0.004c0.025 1.484-0.208 2.587-0.698 3.308-0.492 0.715-1.18 1.232-2.063 1.55v0c-2.361 0.85-4.4-0.007-6.117-2.573v0c-0.494-0.742-0.951-1.561-1.373-2.456v0c-0.411-1.14-0.651-2.327-0.72-3.562-0.07-1.234 0.207-2.176 0.829-2.824v0c0.271-0.388 0.544-0.681 0.819-0.879 0.275-0.198 0.678-0.425 1.21-0.68v0c0.001 0.021 0.008 0.05 0.021 0.088z" fill="black"></path><path d="M15.886 119.07v0l0.185-0.076 0.583-0.206c0.803-0.284 1.732-0.594 2.785-0.932v0l0.012-0.025 0.208 0.498c0.665 1.601 1.083 2.643 1.253 3.126v0l1.545 4.369c0.528 1.494 0.659 2.842 0.392 4.045v0c-0.177 0.458-0.482 0.884-0.915 1.277-0.424 0.397-0.957 0.709-1.597 0.935v0c-1.23 0.435-2.566-0.018-4.007-1.358v0c0.071 1.02-0.088 1.878-0.478 2.573-0.39 0.696-0.992 1.188-1.809 1.476v0c-1.45 0.513-2.778 0.251-3.984-0.784v0c-0.902-0.754-1.612-1.863-2.129-3.325v0l-0.947-2.801c-0.426-1.205-1.02-2.796-1.782-4.771v0c0.308-0.307 1.736-0.91 4.285-1.812 2.548-0.901 4.682-1.637 6.4-2.209zM9.989 127.319l0.123 0.348c0.572 1.619 1.424 2.229 2.554 1.83v0c0.716-0.253 1.118-0.642 1.207-1.168v0c0.076-0.465-0.018-1.109-0.281-1.934v0l-0.096-0.274-0.588 0.017c-0.66 0.191-1.3 0.396-1.921 0.616-0.621 0.22-0.954 0.408-0.998 0.565zM17.086 127.469v0c0.283 0.041 0.594 0.002 0.932-0.118v0c0.653-0.231 1.009-0.621 1.069-1.172 0.062-0.544 0.002-1.074-0.18-1.589-0.18-0.508-0.458-0.696-0.835-0.563v0c-0.665 0.235-1.344 0.493-2.036 0.773v0l-0.492 0.195c-0.228 0.095-0.318 0.278-0.271 0.551v0l0.219 0.442c0.448 0.908 0.979 1.401 1.594 1.481z" fill="black"></path><path d="M29.339 151.176l-0.414 0.298c-0.005 0.004-0.02 0.013-0.045 0.025v0l-0.023 0.019c-0.231 0.16-0.476 0.35-0.735 0.57-0.264 0.224-0.527 0.48-0.787 0.77-0.256 0.295-0.488 0.614-0.696 0.955-0.209 0.351-0.319 0.706-0.329 1.064v0c-0.004 0.387 0.11 0.718 0.342 0.992 0.237 0.28 0.475 0.479 0.716 0.598 0.235 0.124 0.47 0.2 0.703 0.229 0.229 0.024 0.489-0.004 0.78-0.084v0c0.755-0.22 1.712-0.821 2.871-1.801v0c1.179-0.998 1.889-1.834 2.129-2.508 0.245-0.669 0.137-1.276-0.323-1.82v0c-0.232-0.274-0.5-0.457-0.805-0.549-0.308-0.097-0.577-0.135-0.805-0.116-0.228 0.019-0.618 0.166-1.17 0.441-0.553 0.285-1.022 0.59-1.409 0.917zM25.174 147.165v0l0.181-0.126c0.682-0.472 1.31-0.864 1.883-1.175 0.574-0.311 1.169-0.536 1.785-0.674v0c1.395-0.247 2.743-0.093 4.043 0.465 1.304 0.562 2.429 1.402 3.375 2.52 0.946 1.118 1.582 2.328 1.908 3.631v0c0.196 0.767 0.219 1.48 0.07 2.139v0c-0.238 1.213-0.588 2.176-1.049 2.888-0.466 0.717-1.106 1.419-1.918 2.108v0c-1.809 1.531-3.507 2.322-5.094 2.374v0l-0.755 0.05c-0.944-0.013-1.929-0.321-2.956-0.926-1.022-0.609-1.894-1.332-2.618-2.167v0c-1.226-1.448-1.925-2.893-2.098-4.334v0c-0.308-2.425 0.773-4.683 3.243-6.773z" fill="black"></path><path d="M52.808 171.216l-0.281 0.426c-0.003 0.006-0.014 0.019-0.033 0.039v0l-0.015 0.026c-0.159 0.232-0.32 0.496-0.484 0.793-0.168 0.303-0.322 0.636-0.462 1-0.134 0.367-0.238 0.747-0.311 1.14-0.07 0.402-0.047 0.773 0.07 1.112v0c0.134 0.363 0.358 0.632 0.672 0.806 0.32 0.177 0.614 0.279 0.881 0.304 0.264 0.032 0.51 0.02 0.74-0.036 0.223-0.059 0.456-0.178 0.698-0.355v0c0.628-0.474 1.309-1.376 2.044-2.704v0c0.748-1.351 1.114-2.385 1.099-3.101-0.009-0.713-0.325-1.241-0.948-1.586v0c-0.315-0.174-0.63-0.25-0.947-0.227-0.323 0.019-0.587 0.078-0.795 0.177-0.207 0.099-0.519 0.375-0.937 0.828-0.416 0.462-0.746 0.915-0.991 1.358zM47.49 168.947v0l0.124-0.183c0.47-0.684 0.917-1.273 1.343-1.767 0.426-0.495 0.902-0.916 1.429-1.264v0c1.216-0.727 2.531-1.061 3.944-1.002 1.419 0.062 2.769 0.448 4.051 1.157 1.282 0.709 2.306 1.614 3.073 2.716v0c0.456 0.648 0.731 1.306 0.825 1.974v0c0.208 1.218 0.224 2.243 0.047 3.073-0.181 0.836-0.529 1.72-1.045 2.651v0c-1.147 2.074-2.453 3.417-3.918 4.03v0l-0.688 0.315c-0.887 0.324-1.917 0.385-3.092 0.184-1.171-0.207-2.244-0.572-3.217-1.095v0c-1.66-0.918-2.827-2.02-3.501-3.306v0c-1.15-2.158-0.941-4.652 0.625-7.483z" fill="black"></path><path d="M76.998 180.37l0.722-4.859 0.091-0.855c0.051-0.356 0.118-0.572 0.203-0.647v0c0.179 0.019 0.515 0.063 1.01 0.134 0.494 0.07 0.922 0.135 1.284 0.193v0l1.381 0.217c0.26 0.017 0.634 0.06 1.121 0.129 0.481 0.069 0.778 0.178 0.892 0.329v0c-0.26 1.59-0.547 3.489-0.862 5.697v0l0.338 0.109c0.135-0.243 0.368-0.603 0.698-1.081 0.336-0.47 0.53-0.745 0.582-0.825v0l0.142-0.222c0.035-0.056 0.19-0.292 0.464-0.71 0.275-0.418 0.564-0.891 0.868-1.42 0.304-0.528 0.607-0.936 0.911-1.222v0c0.456 0.058 1.013 0.134 1.672 0.228 0.659 0.094 1.429 0.214 2.309 0.359 0.873 0.151 1.53 0.258 1.972 0.321v0c-2.352 3.108-4.013 5.255-4.983 6.442v0l0.176 0.398c0.216 0.374 0.667 1.41 1.353 3.108 0.679 1.704 1.175 2.918 1.488 3.641v0l0.174 0.409c0.221 0.522 0.328 0.817 0.318 0.882-0.009 0.066-0.038 0.122-0.084 0.17v0l-0.06-0.009c-0.361-0.065-0.656-0.114-0.886-0.146-0.224-0.032-0.522-0.068-0.893-0.107v0l-4.409-0.628c-0.746-2.036-1.505-4.236-2.278-6.598v0c-0.128 0.52-0.383 1.748-0.767 3.683v0l-0.018 0.129-0.299 2.237c-0.096 0.107-0.447 0.118-1.053 0.031v0l-0.206-0.039-0.534-0.076-2.781-0.376-0.91-0.13c-0.185-0.026-0.307-0.114-0.365-0.263v0l-0.026-0.034 0.213-1.493 0.239-1.54z" fill="black"></path><path d="M109.216 190.131l-0.153-1.078c-0.225-1.326-0.346-2.254-0.361-2.785v0c-0.483-2.842-0.929-5.71-1.34-8.605v0c-0.09-0.41-0.171-0.825-0.242-1.245v0l-0.056-0.325c-0.06-0.192-0.103-0.367-0.129-0.525-0.027-0.158-0.028-0.262-0.003-0.314v0c1.412-0.152 2.644-0.317 3.694-0.496 1.057-0.179 1.775-0.322 2.156-0.427v0c0.016 0.017 0.036 0.072 0.058 0.163v0l-0.069 0.012 0.602 3.544 1.423 7.962c0.01 0.059 0.028 0.107 0.055 0.143v0l0.003 0.02c0.025 0.029 0.042 0.067 0.05 0.113v0l0.564 2.841c-0.021 0.078-0.07 0.144-0.149 0.198v0l-0.335 0.057-5.468 1.02c-0.071-0.022-0.165-0.056-0.281-0.104v0z" fill="black"></path><path d="M144.029 169.554v0l0.303 0.586 1.735 3.239 0.843 1.531 0.235 0.44 0.231 0.409c-0.01 0.066-0.141 0.166-0.394 0.302v0l-0.229 0.122-2.727 1.507c-1.168 0.626-2.041 1.089-2.619 1.391v0c-0.138-0.047-0.911-0.728-2.318-2.043v0l-4.049-3.541-0.294 0.214 0.468 0.894 1.273 2.377 1.308 2.357 0.524 0.977c0.141 0.264 0.157 0.433 0.045 0.508v0c-0.59 0.294-1.147 0.58-1.669 0.861v0l-0.273 0.146-1.301 0.742-0.176 0.095-0.624 0.357-0.036-0.004c-0.285-0.081-0.45-0.163-0.494-0.245v0l-0.085-0.158-0.086-0.181-1.785-3.439c-2.006-3.744-3.492-6.596-4.458-8.555v0l-0.369-0.731c-0.028-0.053 1.959-1.178 5.963-3.376v0c0.048 0.005 0.17 0.105 0.366 0.302v0l-0.015-0.026 0.143 0.139c1.092 1.009 2.378 2.148 3.858 3.416 1.478 1.278 2.232 1.931 2.262 1.96v0l0.29-0.178-3.789-7.157c-0.025-0.047 0.388-0.298 1.238-0.754v0l2.225-1.135 0.651-0.349c1.075 1.909 2.352 4.242 3.829 7z" fill="black"></path><path d="M171.643 151.118l0.106 0.09c0.005 0.004 0.017 0.01 0.037 0.018v0l0.041 0.075 0.007-0.008 0.015 0.013c0.01 0.009 0.016 0.018 0.016 0.027v0c-0.02 0.394-0.346 1.117-0.979 2.169-0.628 1.047-1.089 1.744-1.382 2.089-0.293 0.345-0.46 0.535-0.499 0.572v0l-0.307 0.407c-0.32 0.427-0.505 0.671-0.557 0.732v0c-1.803 2.12-3.706 3.28-5.712 3.48-2.005 0.2-3.989-0.534-5.952-2.203-1.958-1.665-2.937-3.524-2.938-5.578-0.001-2.054 0.865-4.101 2.599-6.14v0c0.319-0.375 0.747-0.807 1.283-1.294 0.537-0.487 1.048-0.878 1.535-1.173v0c0.634-0.335 1.302-0.514 2.004-0.537 0.697-0.028 1.328 0.103 1.895 0.392v0c0.149 0.092 0.374 0.244 0.674 0.455 0.305 0.207 0.532 0.356 0.681 0.448v0c0.05 0.095-0.004 0.237-0.164 0.424v0l-3.335 3.784c-0.027 0.012-0.117-0.021-0.27-0.098v0l0.023 0.019c-0.483-0.254-0.885-0.285-1.205-0.094v0c-0.149 0.083-0.308 0.223-0.476 0.421-0.164 0.193-0.288 0.406-0.373 0.64-0.081 0.229-0.112 0.451-0.095 0.666 0.017 0.216 0.063 0.434 0.138 0.655 0.075 0.221 0.181 0.429 0.32 0.626 0.139 0.197 0.289 0.39 0.45 0.58 0.157 0.195 0.321 0.373 0.49 0.534 0.178 0.16 0.347 0.317 0.506 0.469 0.163 0.147 0.3 0.264 0.41 0.349 0.116 0.09 0.192 0.15 0.227 0.18v0l0.518 0.44c0.33 0.28 0.571 0.459 0.723 0.537 0.158 0.082 0.328 0.169 0.51 0.263 0.187 0.089 0.344 0.14 0.473 0.153v0c0.447 0.039 0.821-0.01 1.122-0.147 0.31-0.138 0.672-0.451 1.086-0.938 0.414-0.487 0.733-1.011 0.956-1.573v0l-1.162-1.053-0.505 0.501-0.026 0.108-0.673 0.792-0.07 0.097-0.36 0.022c-0.095-0.063-0.236-0.175-0.423-0.334v0l-1.697-1.442c-0.086-0.073-0.121-0.207-0.103-0.403v0l0.433-0.509c0.371-0.436 0.794-0.924 1.27-1.463v0l0.065-0.076c0.428-0.483 0.753-0.854 0.972-1.113v0l0.389-0.457 0.141-0.181c0.763-0.898 1.257-1.36 1.481-1.388v0z" fill="black"></path><path d="M177.607 133.678v0l1.698-4.971c0.045-0.125 0.189-0.19 0.432-0.195 0.245-0.011 0.444-0.034 0.598-0.071v0c0.362-0.082 0.625-0.348 0.788-0.798 0.16-0.445 0.187-0.842 0.079-1.192-0.109-0.344-0.33-0.576-0.662-0.696-0.332-0.12-0.588-0.117-0.768 0.01-0.178 0.12-0.362 0.259-0.553 0.416-0.185 0.16-0.379 0.422-0.582 0.788-0.203 0.366-0.317 0.565-0.343 0.598v0l0.007-0.019-0.334 0.485c-0.187 0.322-0.36 0.585-0.519 0.789v0c-0.936 1.339-1.825 2.233-2.665 2.68-0.847 0.445-1.781 0.483-2.802 0.114v0c-0.739-0.267-1.357-0.642-1.855-1.126-0.489-0.488-0.841-1.022-1.056-1.602v0c-0.616-1.666-0.519-3.623 0.292-5.871v0c0.644-1.785 1.477-3.073 2.499-3.865v0l-0.003 0.009c0.705-0.482 1.33-0.762 1.875-0.841 0.545-0.079 1.167-0.028 1.866 0.153v0l0.156 0.332c-0.529 1.663-1.022 3.127-1.479 4.392v0c-0.138 0.382-0.332 0.567-0.582 0.555v0c-0.105-0.003-0.212-0.002-0.319 0.001v0c-0.257 0.006-0.471 0.247-0.643 0.724v0l-0.014 0.037c-0.133 0.369-0.159 0.714-0.076 1.035 0.074 0.324 0.192 0.519 0.352 0.583 0.163 0.059 0.31 0.073 0.441 0.042 0.127-0.039 0.237-0.088 0.329-0.146 0.092-0.059 0.202-0.157 0.33-0.295 0.124-0.146 0.214-0.259 0.27-0.338 0.048-0.075 0.13-0.194 0.246-0.357v0l0.203-0.298c0.085-0.118 0.317-0.466 0.695-1.045 0.379-0.578 0.712-1.052 1.002-1.422v0l-0.01-0.003c0.924-1.167 1.808-1.871 2.652-2.112 0.844-0.24 1.711-0.2 2.6 0.121v0c2.38 0.859 3.409 2.83 3.089 5.914v0c-0.092 0.901-0.262 1.834-0.511 2.798v0c-0.414 1.146-0.992 2.218-1.734 3.218-0.743 0.999-1.562 1.553-2.457 1.661v0c-0.46 0.117-0.859 0.164-1.198 0.141-0.338-0.023-0.797-0.107-1.374-0.252v0c0.013-0.017 0.026-0.044 0.04-0.081z" fill="black"></path><path d="M1.9 96.953c0-3.244 2.63-5.875 5.875-5.875 3.244 0 5.875 2.63 5.874 5.875 0 3.244-2.63 5.875-5.874 5.874-3.244 0-5.875-2.63-5.875-5.874z" fill="black"></path><path d="M177.645 96.953c0-3.244 2.63-5.875 5.875-5.875 3.244 0 5.875 2.63 5.874 5.875 0 3.244-2.63 5.875-5.874 5.874-3.244 0-5.875-2.63-5.875-5.874z" fill="black"></path></g><g id="SvgjsG2175"></g></svg></g></svg></g></svg></g><defs><mask></mask></defs></svg><rect width="395.52" height="122.42459078899194" fill="black" stroke="none" visibility="hidden"></rect></g></mask></svg><rect width="395.52" height="122.42459078899194" fill="black" stroke="none" visibility="hidden"></rect></g></mask><linearGradient x1="0.054" x2="0.941" y1="0.5" y2="0.5" id="92a49f58-4e53-4d84-8643-b1ff503fb2f8"><stop stop-color="#9c7945" offset="0"></stop><stop stop-color="#faf3aa" offset="0.498"></stop><stop stop-color="#9c7945" offset="1"></stop></linearGradient><rect width="395.52" height="122.42459078899194" fill="url(#92a49f58-4e53-4d84-8643-b1ff503fb2f8)" mask="url(#4ccf46eb-c802-49ec-919e-9d92eabbec34)" data-fill-palette-color="accent"></rect></svg><rect width="395.52" height="122.42459078899194" fill="none" stroke="none" visibility="hidden"></rect></g></svg></g></svg>